<svg width="21" height="21" viewBox="0 0 21 21" fill="none" xmlns="http://www.w3.org/2000/svg">
<path d="M18.4071 6.86421H16.8934V3.88529C16.8934 3.37518 16.6905 2.89972 16.3585 2.55212L15.3804 1.52861C14.5503 0.673354 14.4456 0.43173 13.9512 0.191748C13.7215 0.0771094 13.4188 0 13.1137 0H5.96907C4.90475 0 4.0392 0.865963 4.0392 1.92987V12.3371H3.6322C3.0182 12.3371 2.51883 12.8365 2.51883 13.4505C2.51883 13.756 2.64253 14.0327 2.84212 14.2339C2.64253 14.4352 2.51883 14.7119 2.51883 15.0174C2.51883 15.1321 2.53491 15.2001 2.54069 15.2376C0.124627 15.4834 -0.837846 18.4738 0.930378 20.0969C1.4644 20.5872 2.17323 20.8651 2.94187 20.8338C3.19588 20.8338 8.42545 20.8318 8.43205 20.8318C9.04565 20.8318 9.54542 20.3324 9.54542 19.7184C9.54542 19.4128 9.42172 19.1361 9.22214 18.9349C9.40978 18.7456 9.53016 18.4904 9.54378 18.2067H9.96153V18.4298C9.96153 19.847 11.1145 21 12.5318 21H18.4071C19.8244 21 20.9774 19.847 20.9774 18.4298V9.43445C20.9774 8.01716 19.8244 6.86421 18.4071 6.86421ZM15.7808 2.90304C15.7808 2.90304 15.7812 2.90305 15.7816 2.90387C15.7821 2.90387 15.7821 2.90387 15.7821 2.90387C15.7825 2.90469 15.7833 2.90551 15.7837 2.90592L15.7841 2.90633C15.7849 2.90756 15.7857 2.90838 15.7866 2.90879C15.787 2.9092 15.7874 2.90961 15.7878 2.91043C15.7882 2.91084 15.7886 2.91084 15.7886 2.91125C15.789 2.91166 15.7894 2.91166 15.7898 2.91248C15.7907 2.91289 15.7911 2.91371 15.7915 2.91412H14.1383V1.16657C15.434 2.53604 15.726 2.84488 15.7808 2.90304ZM3.6322 12.9969H8.43209C8.682 12.9969 8.88569 13.2006 8.88569 13.4505C8.88569 13.7008 8.68196 13.904 8.43209 13.904H3.6322C3.38229 13.904 3.17861 13.7008 3.17861 13.4505C3.17857 13.2006 3.38229 12.9969 3.6322 12.9969ZM3.6322 14.5638H8.43209C8.682 14.5638 8.88569 14.7676 8.88569 15.0174C8.88569 15.2677 8.68196 15.471 8.43209 15.471H5.11668C4.98182 15.4092 4.84204 15.3588 4.69894 15.3201C4.48533 15.2619 4.26429 15.2289 4.03916 15.2232C3.97444 15.2215 3.90967 15.2219 3.84495 15.2248H3.2293C3.19674 15.1625 3.17857 15.092 3.17857 15.0174C3.17857 14.7676 3.38229 14.5638 3.6322 14.5638ZM8.88569 16.5844C8.88569 16.8347 8.68196 17.038 8.43209 17.038H6.58594C6.4606 16.7044 6.27172 16.3972 6.02595 16.1308H8.43209C8.68196 16.1308 8.88569 16.3345 8.88569 16.5844ZM2.02726 15.9923C1.82645 16.1828 1.64786 16.4092 1.50767 16.6587H1.12336C1.3745 16.3473 1.68667 16.1259 2.02726 15.9923ZM0.772427 17.2772H1.25284C1.24214 17.3234 1.18767 17.5011 1.16294 17.7716H0.655328C0.675138 17.6017 0.714308 17.4359 0.772427 17.2772ZM0.825624 18.9122C0.752658 18.7464 0.700281 18.5712 0.670585 18.3902H1.1745C1.26482 18.9023 1.26974 18.8141 1.29242 18.9122H0.825624ZM1.23718 19.5307C1.43963 19.5303 1.55718 19.5316 1.58478 19.5299C1.70808 19.7245 1.85651 19.9048 2.02849 20.0668C1.72953 19.9493 1.46358 19.7699 1.23718 19.5307ZM4.05195 20.2157C2.84499 20.2677 1.82312 19.3328 1.77198 18.123C1.68909 16.1968 3.98965 15.0876 5.43828 16.4174C6.86636 17.7283 5.99708 20.1357 4.05195 20.2157ZM8.43209 20.172H5.76948C6.0643 19.9225 6.30638 19.6136 6.47832 19.2648H8.43209C8.682 19.2648 8.88569 19.4685 8.88569 19.7184C8.88569 19.9687 8.68196 20.172 8.43209 20.172ZM8.88199 18.2067C8.85476 18.431 8.66342 18.605 8.43209 18.605H6.70595C6.76575 18.3188 6.78265 18.0104 6.74594 17.6978H8.43209C8.71002 17.6978 8.91743 17.9465 8.88199 18.2067ZM9.96153 17.5469H9.36606C9.32443 17.4821 9.27615 17.4223 9.22214 17.3679C9.65305 16.9333 9.65346 16.2355 9.22214 15.8009C9.42172 15.5997 9.54542 15.323 9.54542 15.0175C9.54542 14.7119 9.42172 14.4352 9.22214 14.234C9.91571 13.5346 9.42008 12.3371 8.43205 12.3371H4.69894V1.92987C4.69894 1.22969 5.26881 0.659777 5.96902 0.659777H13.4786V3.24405C13.4786 3.42632 13.6262 3.57394 13.8085 3.57394H16.1944C16.2632 3.84115 16.2208 3.75289 16.2336 6.86417H12.5318C11.1145 6.86417 9.96153 8.01712 9.96153 9.43441V17.5469ZM20.3589 18.4298C20.3589 19.506 19.4834 20.3815 18.4071 20.3815H12.5318C11.456 20.3815 10.5801 19.506 10.5801 18.4298V9.43445C10.5801 8.3582 11.4559 7.48273 12.5318 7.48273H18.4072C19.4834 7.48273 20.3589 8.35816 20.3589 9.43445V18.4298H20.3589Z" fill="white"/>
<path d="M18.3853 8.1842H12.5537C11.9803 8.1842 11.5154 8.64908 11.5154 9.22251V10.3545C11.5154 10.9279 11.9803 11.3928 12.5537 11.3928H13.6757C13.8465 11.3928 13.985 11.2543 13.985 11.0835C13.985 10.9127 13.8465 10.7743 13.6757 10.7743H12.5537C12.3228 10.7743 12.1339 10.5853 12.1339 10.3545V9.22251C12.1339 8.99164 12.3228 8.80272 12.5537 8.80272H18.3853C18.6171 8.80272 18.8051 8.99119 18.8051 9.22251V10.3545C18.8051 10.5858 18.6171 10.7743 18.3853 10.7743H15.0093C14.8385 10.7743 14.7001 10.9127 14.7001 11.0835C14.7001 11.2543 14.8385 11.3928 15.0093 11.3928H18.3853C18.9581 11.3928 19.4236 10.9268 19.4236 10.3545V9.22251C19.4236 8.65018 18.9581 8.1842 18.3853 8.1842Z" fill="white"/>
<path d="M13.2197 14.7012H12.1628C11.8061 14.7012 11.5154 14.9915 11.5154 15.3486V16.405C11.5154 16.7622 11.8061 17.0524 12.1628 17.0524H13.2197C13.5768 17.0524 13.8671 16.7621 13.8671 16.405V15.3486C13.8671 14.9915 13.5767 14.7012 13.2197 14.7012ZM13.2485 16.405C13.2485 16.4211 13.2353 16.4339 13.2196 16.4339H12.1627C12.1471 16.4339 12.1339 16.4211 12.1339 16.405V15.3486C12.1339 15.3325 12.1471 15.3197 12.1627 15.3197H13.2196C13.2353 15.3197 13.2485 15.3325 13.2485 15.3486V16.405Z" fill="white"/>
<path d="M18.8096 11.9384H17.7531C17.396 11.9384 17.1057 12.2287 17.1057 12.5857V13.6422C17.1057 13.9993 17.396 14.2896 17.7531 14.2896H18.8096C19.1667 14.2896 19.457 13.9993 19.457 13.6422V12.5857C19.457 12.2287 19.1667 11.9384 18.8096 11.9384ZM18.8385 13.6422C18.8385 13.6583 18.8257 13.6711 18.8096 13.6711H17.7531C17.7374 13.6711 17.7242 13.6583 17.7242 13.6422C17.737 12.5969 17.6974 12.5569 17.7531 12.5569H18.8096C18.8257 12.5569 18.8385 12.5697 18.8385 12.5857V13.6422Z" fill="white"/>
<path d="M13.2197 11.9384H12.1628C11.8061 11.9384 11.5154 12.2287 11.5154 12.5857V13.6422C11.5154 13.9993 11.8061 14.2896 12.1628 14.2896H13.2197C13.5768 14.2896 13.8671 13.9993 13.8671 13.6422V12.5857C13.8671 12.2287 13.5767 11.9384 13.2197 11.9384ZM13.2485 13.6422C13.2485 13.6583 13.2353 13.6711 13.2196 13.6711H12.1627C12.1471 13.6711 12.1339 13.6583 12.1339 13.6422V12.5857C12.1339 12.5697 12.1471 12.5569 12.1627 12.5569H13.2196C13.2353 12.5569 13.2485 12.5697 13.2485 12.5857V13.6422Z" fill="white"/>
<path d="M13.7042 17.5469C13.5854 17.4133 13.4122 17.3287 13.2197 17.3287H12.1628C11.9702 17.3287 11.797 17.4133 11.6787 17.5469C11.4539 17.7988 11.5302 18.0735 11.5154 18.2066V19.0326C11.5154 19.3897 11.8061 19.68 12.1628 19.68H13.2197C13.5768 19.68 13.8671 19.3897 13.8671 19.0326V18.2066C13.8522 18.0764 13.9277 17.7988 13.7042 17.5469ZM13.2197 19.0615C12.1756 19.0487 12.1339 19.0883 12.1339 19.0326C12.1339 17.9139 12.1215 17.9473 12.1628 17.9473H13.2197C13.2704 17.9473 13.2391 18.0178 13.2485 18.2066C13.2485 18.2067 13.2753 19.0615 13.2197 19.0615Z" fill="white"/>
<path d="M18.6455 14.7012H17.9172C17.4699 14.7012 17.1057 15.0653 17.1057 15.5127V18.7939C17.1057 19.2825 17.5032 19.6801 17.9915 19.6801H18.5713C19.0599 19.6801 19.4571 19.2825 19.4571 18.7939V15.5127C19.457 15.0653 19.0933 14.7012 18.6455 14.7012ZM18.5713 19.0615H17.9915C17.8443 19.0615 17.7243 18.9415 17.7243 18.7939V15.5127C17.7243 15.4063 17.8109 15.3197 17.9172 15.3197H18.6455C18.7519 15.3197 18.8385 15.4063 18.8385 15.5127V18.7939C18.8385 18.9415 18.7189 19.0615 18.5713 19.0615Z" fill="white"/>
<path d="M7.9835 8.9836C7.6064 8.84505 7.33398 8.74497 7.33398 8.3956C7.33398 8.07719 7.54545 7.91576 7.96246 7.91576C8.40514 7.91576 8.52433 8.11062 8.68027 8.11062C8.85 8.11062 8.94388 7.93052 8.94388 7.80596C8.94388 7.5483 8.52359 7.42053 8.14789 7.38682V7.15451C8.14789 6.99291 8.01644 6.86145 7.85483 6.86145C7.69323 6.86145 7.56178 6.99291 7.56178 7.15451V7.42386C7.04806 7.54584 6.76579 7.90066 6.76579 8.4264C6.76579 9.14623 7.29571 9.34536 7.72162 9.50544C8.13858 9.66212 8.46798 9.78591 8.46798 10.262C8.46798 10.6552 8.24965 10.8546 7.81895 10.8546C7.18862 10.8546 7.18271 10.429 6.94228 10.429C6.79339 10.429 6.67346 10.5957 6.67346 10.7337C6.67346 10.9774 7.03641 11.2977 7.56178 11.3808V11.6053C7.56178 11.7669 7.69323 11.8984 7.85483 11.8984C8.01644 11.8984 8.14789 11.7669 8.14789 11.6053V11.3748C8.713 11.2685 9.03621 10.8535 9.03621 10.2312C9.03617 9.37038 8.45251 9.15595 7.9835 8.9836Z" fill="white"/>
<path d="M16.4468 17.5102C16.3305 17.398 16.1722 17.3287 15.9981 17.3287H14.9413C14.7487 17.3287 14.5755 17.4133 14.4567 17.5469C14.2328 17.7992 14.3087 18.0735 14.2939 18.2066V19.0326C14.2939 19.3897 14.5842 19.68 14.9413 19.68H15.9981C16.3549 19.68 16.6451 19.3897 16.6451 19.0326V17.9757C16.6451 17.7931 16.5688 17.6277 16.4468 17.5102ZM15.9981 19.0615C14.9541 19.0487 14.9124 19.0883 14.9124 19.0326V17.9757C14.9124 17.96 14.9256 17.9473 14.9413 17.9473H15.9981C16.0138 17.9473 16.0266 17.96 16.0266 17.9757C16.0142 19.0223 16.053 19.0615 15.9981 19.0615Z" fill="white"/>
<path d="M15.9981 11.9384H14.9412C14.5841 11.9384 14.2938 12.2287 14.2938 12.5857V13.6422C14.2938 13.9993 14.5841 14.2896 14.9412 14.2896H15.9981C16.0814 14.2896 16.1606 14.2739 16.2336 14.2451C16.4744 14.1507 16.6451 13.916 16.6451 13.6422V12.5857C16.6451 12.2274 16.3531 11.9384 15.9981 11.9384ZM15.9981 13.6711H14.9412C14.9255 13.6711 14.9123 13.6583 14.9123 13.6422V12.5857C14.9123 12.5301 14.9507 12.5693 15.9981 12.5569C16.0138 12.5569 16.0266 12.5697 16.0266 12.5857V13.6422C16.0266 13.6583 16.0138 13.6711 15.9981 13.6711Z" fill="white"/>
<path d="M16.2336 14.7457C16.1606 14.7168 16.0814 14.7012 15.9981 14.7012H14.9412C14.5841 14.7012 14.2938 14.9915 14.2938 15.3486V16.405C14.2938 16.7622 14.5841 17.0524 14.9412 17.0524H15.9981C16.3548 17.0524 16.6451 16.7621 16.6451 16.405V15.3486C16.6451 15.0748 16.4744 14.8401 16.2336 14.7457ZM16.0266 16.405C16.0266 16.4211 16.0138 16.4339 15.9981 16.4339H14.9412C14.9255 16.4339 14.9123 16.4211 14.9123 16.405V15.3486C14.9123 15.3325 14.9255 15.3197 14.9412 15.3197H15.9981C16.0138 15.3197 16.0266 15.3325 16.0266 15.3486V16.405Z" fill="white"/>
<path d="M14.213 4.22632H13.4361C13.2654 4.22632 13.1268 4.36487 13.1268 4.53558C13.1268 4.70669 13.2654 4.84483 13.4361 4.84483H14.213C14.3837 4.84483 14.5222 4.70669 14.5222 4.53558C14.5223 4.36487 14.3837 4.22632 14.213 4.22632Z" fill="white"/>
<path d="M12.1991 4.22632H6.71465C6.54395 4.22632 6.4054 4.36487 6.4054 4.53558C6.4054 4.70669 6.54395 4.84483 6.71465 4.84483H12.1991C12.3698 4.84483 12.5084 4.70669 12.5084 4.53558C12.5084 4.36487 12.3698 4.22632 12.1991 4.22632Z" fill="white"/>
<path d="M7.69772 5.76154H6.71465C6.54395 5.76154 6.4054 5.90009 6.4054 6.07079C6.4054 6.2415 6.54395 6.38005 6.71465 6.38005H7.69772C7.86842 6.38005 8.00697 6.2415 8.00697 6.07079C8.00697 5.90009 7.86842 5.76154 7.69772 5.76154Z" fill="white"/>
<path d="M14.213 5.76154H8.93475C8.76404 5.76154 8.62549 5.90009 8.62549 6.07079C8.62549 6.2415 8.76404 6.38005 8.93475 6.38005H14.213C14.3837 6.38005 14.5223 6.2415 14.5223 6.07079C14.5223 5.90009 14.3837 5.76154 14.213 5.76154Z" fill="white"/>
<path d="M3.78284 17.4382C3.78284 17.3604 3.81146 17.3381 3.83825 17.3233C3.92135 17.2773 4.11199 17.2638 4.28663 17.3536C4.33302 17.3774 4.3856 17.4044 4.45402 17.4044C4.75905 17.4044 5.0003 16.8376 4.27166 16.7123V16.6929C4.27166 16.5201 4.13106 16.3795 3.95826 16.3795C3.78546 16.3795 3.64486 16.5201 3.64486 16.6929V16.7523C3.33954 16.8631 3.16682 17.1149 3.16682 17.4566C3.16682 17.9841 3.55003 18.1281 3.82992 18.2332C4.09681 18.3335 4.1891 18.3774 4.1891 18.5589C4.1891 18.6724 4.15854 18.7775 3.93669 18.7775C3.6134 18.7775 3.65212 18.5219 3.41017 18.5219C3.23917 18.5219 3.11133 18.6911 3.11133 18.8423C3.11133 19.0565 3.33413 19.2599 3.64486 19.3423V19.3658C3.64486 19.5386 3.78546 19.6792 3.95826 19.6792C4.13106 19.6792 4.27166 19.5386 4.27166 19.3658V19.3341C4.60791 19.2261 4.80515 18.9365 4.80515 18.5405C4.80515 17.6007 3.78284 17.7418 3.78284 17.4382Z" fill="white"/>
</svg>
