<svg width="17" height="13" viewBox="0 0 17 13" fill="none" xmlns="http://www.w3.org/2000/svg">
<path d="M5.35342 0H0.765188C0.342843 0 0.000488281 0.342354 0.000488281 0.7647V5.35293C0.000488281 5.77528 0.342843 6.11763 0.765188 6.11763H5.35342C5.77577 6.11763 6.11812 5.77528 6.11812 5.35293V0.7647C6.11812 0.342354 5.77577 0 5.35342 0ZM4.58872 4.58823H1.52989V1.5294H4.58872V4.58823Z" fill="white"/>
<path d="M16.0591 2.29413H8.41204C7.98969 2.29413 7.64734 2.63648 7.64734 3.05883C7.64734 3.48117 7.98969 3.82353 8.41204 3.82353H16.0591C16.4815 3.82353 16.8238 3.48117 16.8238 3.05883C16.8238 2.63652 16.4814 2.29413 16.0591 2.29413Z" fill="white"/>
<path d="M16.0591 9.94116H8.41204C7.98969 9.94116 7.64734 10.2835 7.64734 10.7059C7.64734 11.1282 7.98969 11.4706 8.41204 11.4706H16.0591C16.4815 11.4706 16.8238 11.1282 16.8238 10.7059C16.8238 10.2835 16.4814 9.94116 16.0591 9.94116Z" fill="white"/>
<path d="M4.81791 8.63276L2.27221 11.1479L1.31481 10.1538C1.02108 9.85011 0.536791 9.84207 0.233123 10.1358C-0.070544 10.4295 -0.0785928 10.9138 0.215138 11.2175L1.70936 12.7706C1.85185 12.916 2.04645 12.9985 2.25002 13H2.2592C2.45969 12.9994 2.65193 12.92 2.79449 12.779L5.8885 9.72018C6.20859 9.4447 6.24476 8.96183 5.96928 8.64174C5.6938 8.32164 5.21094 8.28547 4.89085 8.56095C4.86498 8.58324 4.8406 8.60722 4.81791 8.63276Z" fill="white"/>
</svg>
