<svg width="20" height="21" viewBox="0 0 20 21" fill="none" xmlns="http://www.w3.org/2000/svg">
<path d="M19.0358 14.6252C19.1932 14.5465 19.308 14.4088 19.3605 14.2448L19.9671 12.3724C20.0229 12.2051 20.0065 12.0281 19.9278 11.8707C19.8491 11.7133 19.7113 11.5985 19.5474 11.546L18.7768 11.2935C18.8259 10.9197 18.8489 10.5426 18.8489 10.1688C18.8489 9.79494 18.8259 9.41784 18.7768 9.04073L19.5474 8.79151C19.7146 8.73577 19.8491 8.62099 19.9278 8.46687C20.0065 8.30947 20.0229 8.13239 19.9671 7.96516L19.3605 6.09274C19.249 5.74842 18.8751 5.56151 18.5341 5.673L17.7635 5.91894C17.3995 5.25654 16.9568 4.64333 16.4354 4.09571L16.9142 3.43987C17.0158 3.29887 17.0585 3.12507 17.0322 2.95127C17.006 2.77748 16.9109 2.62663 16.7699 2.52498L15.1795 1.36742C14.8876 1.15428 14.4777 1.21986 14.2646 1.51171L13.7858 2.16427C13.1038 1.83963 12.3823 1.6068 11.6412 1.46908V0.655838C11.6412 0.295127 11.3461 0 10.9854 0H9.01788C8.65717 0 8.36204 0.295127 8.36204 0.655838V1.4658C7.62095 1.60352 6.89953 1.83963 6.21417 2.16427L5.73869 1.50843C5.52554 1.21658 5.11564 1.151 4.8238 1.36414L3.23339 2.5217C3.09238 2.62335 2.99729 2.77747 2.97105 2.94799C2.94482 3.11851 2.98417 3.29559 3.0891 3.43659L3.56131 4.09243C3.04648 4.64006 2.60051 5.25326 2.23652 5.91894L1.46591 5.66972C1.12159 5.55823 0.751041 5.74514 0.639549 6.08946L0.0328985 7.96188C-0.0228477 8.12912 -0.00645175 8.30619 0.0722488 8.46359C0.150949 8.61771 0.288676 8.73577 0.452635 8.78823L1.22324 9.04073C1.17406 9.41456 1.1511 9.79167 1.1511 10.1655C1.1511 10.5393 1.17406 10.9164 1.22324 11.2935L0.452635 11.5428C0.285396 11.5985 0.150949 11.7133 0.0722488 11.8674C-0.00645175 12.0248 -0.0228477 12.2019 0.0328985 12.3691L0.639549 14.2415C0.695295 14.4088 0.810067 14.5432 0.964189 14.6219C1.12159 14.7006 1.29867 14.717 1.46591 14.6613L2.23652 14.4153C2.60051 15.0777 3.0432 15.6909 3.56459 16.2386L3.08583 16.8944C2.98417 17.0354 2.94154 17.2092 2.96777 17.383C2.99401 17.5568 3.0891 17.7076 3.23011 17.8093L4.82052 18.9668C5.11237 19.18 5.52554 19.1144 5.73541 18.8226L6.21417 18.17C6.89625 18.4946 7.61767 18.7275 8.35877 18.8652V19.6751C8.35877 20.0359 8.65389 20.331 9.0146 20.331H10.9821C11.3428 20.331 11.638 20.0359 11.638 19.6751V18.8652C12.3791 18.7275 13.1005 18.4914 13.7858 18.1667L14.2613 18.8226C14.4745 19.1144 14.8844 19.18 15.1762 18.9668L16.7666 17.8093C16.9076 17.7076 17.0027 17.5535 17.0289 17.383C17.0552 17.2125 17.0158 17.0354 16.9109 16.8944L16.4387 16.2386C16.9535 15.6909 17.3995 15.0777 17.7635 14.412L18.5341 14.6613C18.7013 14.717 18.8784 14.7006 19.0358 14.6219V14.6252ZM17.1896 14.1038C16.8552 14.717 16.442 15.2843 15.9632 15.7893C15.7468 16.0189 15.7205 16.373 15.9075 16.6255L16.3829 17.2813L14.7925 18.4389L14.3171 17.7831C14.1334 17.5273 13.7891 17.442 13.5038 17.5797C12.8709 17.8814 12.2053 18.0979 11.5232 18.2257C11.2117 18.2848 10.9854 18.5537 10.9854 18.8685V19.6784H9.01788V18.8685C9.01788 18.5537 8.79162 18.2848 8.4801 18.2257C7.79802 18.0979 7.13235 17.8814 6.49946 17.5797C6.40765 17.5371 6.31255 17.5174 6.21745 17.5174C6.01414 17.5174 5.81411 17.6125 5.68622 17.7863L5.21074 18.4422L3.61705 17.2846L4.09582 16.6288C4.27945 16.3763 4.2565 16.0221 4.04007 15.7926C3.56131 15.2876 3.15141 14.717 2.81365 14.1071C2.66281 13.8284 2.33489 13.6972 2.03648 13.7956L1.26587 14.0481L0.659224 12.1756L1.42983 11.9264C1.72824 11.828 1.91515 11.5296 1.8758 11.2148C1.8299 10.8672 1.81022 10.5196 1.81022 10.1721C1.81022 9.82446 1.83317 9.47686 1.8758 9.12927C1.91515 8.81447 1.72824 8.51606 1.42983 8.41768L0.659224 8.16847L1.26587 6.29605L2.03648 6.54527C2.33489 6.64036 2.66281 6.50919 2.81365 6.23374C3.14813 5.62053 3.56131 5.05323 4.04007 4.54824C4.2565 4.3187 4.28273 3.96454 4.09582 3.71204L3.62033 3.05621L5.21074 1.89865L5.68622 2.55449C5.86986 2.81027 6.21417 2.89553 6.49946 2.7578C7.13235 2.45611 7.79802 2.23969 8.4801 2.1118C8.79162 2.05277 9.01788 1.78388 9.01788 1.46908V0.655838H10.9854V1.4658C10.9854 1.7806 11.2117 2.04949 11.5232 2.10852C12.2053 2.23641 12.8709 2.45283 13.5038 2.75452C13.7924 2.88897 14.1334 2.80371 14.3171 2.55121L14.7925 1.89537L16.3862 3.05293L15.9075 3.70877C15.7238 3.96126 15.7468 4.31542 15.9632 4.54496C16.442 5.04995 16.8519 5.62053 17.1896 6.23046C17.3405 6.50919 17.6684 6.64036 17.9668 6.54199L18.7374 6.28949L19.3441 8.16191L18.5734 8.41113C18.275 8.5095 18.0881 8.80791 18.1275 9.12271C18.1734 9.4703 18.1931 9.8179 18.1931 10.1655C18.1931 10.5131 18.1701 10.8607 18.1275 11.2083C18.0881 11.5231 18.275 11.8215 18.5734 11.9199L19.3441 12.1691L18.7374 14.0415L17.9668 13.7923C17.6684 13.6939 17.3405 13.8251 17.1896 14.1038Z" fill="white"/>
<path d="M9.9984 2.95129C6.02074 2.95129 2.78418 6.18786 2.78418 10.1655C2.78418 14.1432 6.02074 17.3797 9.9984 17.3797C13.9761 17.3797 17.2126 14.1432 17.2126 10.1655C17.2126 6.18786 13.9761 2.95129 9.9984 2.95129ZM9.9984 16.7239C6.38145 16.7239 3.44002 13.7825 3.44002 10.1655C3.44002 6.54857 6.38145 3.60713 9.9984 3.60713C13.6153 3.60713 16.5568 6.54857 16.5568 10.1655C16.5568 13.7825 13.6153 16.7239 9.9984 16.7239Z" fill="white"/>
<path d="M13.0119 6.824C12.884 6.69612 12.6775 6.69612 12.5496 6.824L8.60798 10.7656L7.44714 9.60476C7.31925 9.47687 7.11267 9.47687 6.98478 9.60476L5.82394 10.7656C5.69606 10.8935 5.69606 11.1001 5.82394 11.228L7.90951 13.3168C8.0997 13.507 8.3522 13.6054 8.6047 13.6054C8.8572 13.6054 9.10969 13.5103 9.29989 13.3168L14.1695 8.4472C14.2974 8.31932 14.2974 8.11273 14.1695 7.98484L13.0087 6.824H13.0119ZM8.83752 12.8512C8.70963 12.979 8.50304 12.979 8.37188 12.8512L6.51585 10.9951L7.21104 10.2999L8.37188 11.4608C8.49976 11.5887 8.70635 11.5887 8.83424 11.4608L12.7758 7.51919L13.471 8.21438L8.83424 12.8512H8.83752Z" fill="white"/>
</svg>
