<svg width="20" height="20" viewBox="0 0 20 20" fill="none" xmlns="http://www.w3.org/2000/svg">
<path d="M9.375 5.9375H5C4.91712 5.9375 4.83763 5.97042 4.77903 6.02903C4.72042 6.08763 4.6875 6.16712 4.6875 6.25V10.3125H4.375C4.29212 10.3125 4.21263 10.3454 4.15403 10.404C4.09542 10.4626 4.0625 10.5421 4.0625 10.625V15C4.0625 15.0829 4.09542 15.1624 4.15403 15.221C4.21263 15.2796 4.29212 15.3125 4.375 15.3125H13.125C13.2079 15.3125 13.2874 15.2796 13.346 15.221C13.4046 15.1624 13.4375 15.0829 13.4375 15V10.625C13.4375 10.5421 13.4046 10.4626 13.346 10.404C13.2874 10.3454 13.2079 10.3125 13.125 10.3125H9.6875V6.25C9.6875 6.16712 9.65458 6.08763 9.59597 6.02903C9.53737 5.97042 9.45788 5.9375 9.375 5.9375ZM6.875 6.5625H7.5V7.5H6.875V6.5625ZM8.4375 14.6875H4.6875V10.9375H5.625V12.1875C5.625 12.2704 5.65792 12.3499 5.71653 12.4085C5.77513 12.4671 5.85462 12.5 5.9375 12.5H7.1875C7.27038 12.5 7.34987 12.4671 7.40847 12.4085C7.46708 12.3499 7.5 12.2704 7.5 12.1875V10.9375H8.4375V14.6875ZM6.25 11.875V10.9375H6.875V11.875H6.25ZM5.3125 10.3125V6.5625H6.25V7.8125C6.25 7.89538 6.28292 7.97487 6.34153 8.03347C6.40013 8.09208 6.47962 8.125 6.5625 8.125H7.8125C7.89538 8.125 7.97487 8.09208 8.03347 8.03347C8.09208 7.97487 8.125 7.89538 8.125 7.8125V6.5625H9.0625V10.3125H5.3125ZM10.625 10.9375H11.25V11.875H10.625V10.9375ZM10 10.9375V12.1875C10 12.2704 10.0329 12.3499 10.0915 12.4085C10.1501 12.4671 10.2296 12.5 10.3125 12.5H11.5625C11.6454 12.5 11.7249 12.4671 11.7835 12.4085C11.8421 12.3499 11.875 12.2704 11.875 12.1875V10.9375H12.8125V14.6875H9.0625V10.9375H10Z" fill="white"/>
<path d="M14.3221 8.22752V8.15783C14.4587 8.09917 14.5889 8.0266 14.7106 7.94127L14.7921 7.98627C14.9132 8.05383 15.0557 8.07185 15.1897 8.03654C15.3238 8.00122 15.4389 7.91532 15.5109 7.79689L15.8628 7.21377C15.8989 7.15456 15.9226 7.08862 15.9325 7.01996C15.9423 6.9513 15.938 6.88136 15.92 6.81439C15.9014 6.74636 15.8693 6.68274 15.8258 6.6273C15.7822 6.57185 15.7279 6.5257 15.6662 6.49158L15.5987 6.45439C15.6129 6.31851 15.6129 6.18152 15.5987 6.04564L15.6662 6.00845C15.7279 5.97433 15.7822 5.92818 15.8258 5.87273C15.8693 5.81729 15.9014 5.75367 15.92 5.68564C15.938 5.61874 15.9423 5.54887 15.9325 5.48027C15.9227 5.41167 15.8991 5.34577 15.8631 5.28658L15.5106 4.70283C15.4384 4.58453 15.3232 4.49887 15.1891 4.46389C15.055 4.42892 14.9126 4.44736 14.7918 4.51533L14.7106 4.56002C14.5888 4.47482 14.4586 4.40226 14.3221 4.34345V4.27377C14.321 4.13375 14.2643 3.99993 14.1645 3.90171C14.0647 3.8035 13.93 3.74893 13.79 3.75002H13.085C12.9453 3.74918 12.811 3.80368 12.7115 3.9016C12.6119 3.99952 12.5552 4.13288 12.5537 4.27252V4.34377C12.4171 4.40243 12.287 4.475 12.1653 4.56033L12.0837 4.51533C11.9627 4.4476 11.8202 4.42949 11.6861 4.46482C11.552 4.50015 11.4369 4.58615 11.365 4.7047L11.0131 5.28783C10.9769 5.34703 10.9532 5.41297 10.9434 5.48163C10.9336 5.55029 10.9378 5.62024 10.9559 5.6872C10.9745 5.75523 11.0065 5.81885 11.0501 5.8743C11.0937 5.92974 11.1479 5.97589 11.2096 6.01002L11.2771 6.0472C11.263 6.18308 11.263 6.32007 11.2771 6.45595L11.2096 6.49314C11.1479 6.52727 11.0937 6.57342 11.0501 6.62886C11.0065 6.68431 10.9745 6.74792 10.9559 6.81595C10.9378 6.88285 10.9336 6.95273 10.9433 7.02133C10.9531 7.08993 10.9767 7.15582 11.0128 7.21502L11.3653 7.79877C11.4374 7.91706 11.5527 8.00272 11.6868 8.0377C11.8209 8.07268 11.9633 8.05424 12.084 7.98627L12.1653 7.94158C12.2871 8.02677 12.4172 8.09934 12.5537 8.15814V8.22783C12.5553 8.36741 12.612 8.50069 12.7116 8.59854C12.8111 8.69639 12.9454 8.75085 13.085 8.75002H13.79C13.9298 8.7511 14.0643 8.69671 14.164 8.59876C14.2638 8.50082 14.3207 8.36731 14.3221 8.22752ZM13.6971 8.12502H13.1778V8.08658C13.1765 7.9808 13.1435 7.87784 13.083 7.79107C13.0224 7.7043 12.9372 7.63774 12.8384 7.60002C12.7162 7.55119 12.6007 7.48703 12.4946 7.40908C12.411 7.34751 12.3116 7.31095 12.208 7.30365C12.1044 7.29635 12.0008 7.3186 11.9093 7.36783L11.8537 7.39908L11.6037 6.98689L11.635 6.96877C11.7271 6.9189 11.802 6.84227 11.8497 6.74899C11.8974 6.65571 11.9157 6.55016 11.9021 6.44627C11.8934 6.38123 11.8895 6.31563 11.8906 6.25002C11.8905 6.18455 11.8952 6.11917 11.9046 6.05439C11.9184 5.95055 11.9002 5.845 11.8526 5.7517C11.805 5.6584 11.7302 5.58175 11.6381 5.53189L11.6068 5.51345L11.8568 5.10127L11.9125 5.13252C12.0041 5.18195 12.1079 5.20427 12.2117 5.19686C12.3155 5.18944 12.4151 5.1526 12.4987 5.09064C12.6048 5.01287 12.7203 4.94891 12.8425 4.90033C12.9413 4.86261 13.0265 4.79604 13.087 4.70927C13.1475 4.62251 13.1806 4.51955 13.1818 4.41377V4.37502H13.7012V4.41345C13.7025 4.51923 13.7355 4.62219 13.796 4.70896C13.8565 4.79573 13.9418 4.8623 14.0406 4.90002C14.1628 4.94884 14.2783 5.013 14.3843 5.09095C14.468 5.15245 14.5674 5.18896 14.671 5.19627C14.7746 5.20357 14.8782 5.18135 14.9696 5.1322L15.0253 5.10095L15.2753 5.51314L15.244 5.53127C15.1519 5.58113 15.077 5.65776 15.0293 5.75104C14.9816 5.84432 14.9633 5.94987 14.9768 6.05377C14.9842 6.1189 14.9868 6.1845 14.9843 6.25002C14.9844 6.31548 14.9797 6.38086 14.9703 6.44564C14.9566 6.54948 14.9747 6.65503 15.0223 6.74834C15.0699 6.84164 15.1447 6.91828 15.2368 6.96814L15.2681 6.98658L15.0181 7.39877L14.9625 7.36752C14.8708 7.31826 14.7671 7.29605 14.6633 7.30346C14.5595 7.31088 14.4599 7.34761 14.3762 7.40939C14.2702 7.48716 14.1547 7.55112 14.0325 7.5997C13.9336 7.63742 13.8484 7.70399 13.7879 7.79076C13.7274 7.87753 13.6943 7.98048 13.6931 8.08627L13.6971 8.12502Z" fill="white"/>
<path d="M14.5312 6.25C14.5312 6.03368 14.4671 5.82221 14.3469 5.64235C14.2267 5.46248 14.0559 5.32229 13.8561 5.23951C13.6562 5.15672 13.4363 5.13506 13.2241 5.17727C13.012 5.21947 12.8171 5.32364 12.6641 5.4766C12.5111 5.62957 12.407 5.82445 12.3648 6.03662C12.3226 6.24879 12.3442 6.4687 12.427 6.66856C12.5098 6.86842 12.65 7.03924 12.8298 7.15942C13.0097 7.2796 13.2212 7.34375 13.4375 7.34375C13.7276 7.34375 14.0058 7.22852 14.2109 7.0234C14.416 6.81828 14.5312 6.54008 14.5312 6.25ZM13.4375 6.71875C13.3448 6.71875 13.2542 6.69126 13.1771 6.63975C13.1 6.58824 13.0399 6.51504 13.0044 6.42938C12.969 6.34373 12.9597 6.24948 12.9778 6.15855C12.9958 6.06762 13.0405 5.9841 13.106 5.91854C13.1716 5.85299 13.2551 5.80834 13.3461 5.79026C13.437 5.77217 13.5312 5.78145 13.6169 5.81693C13.7025 5.85241 13.7757 5.91249 13.8273 5.98958C13.8788 6.06666 13.9062 6.15729 13.9062 6.25C13.9062 6.37432 13.8569 6.49355 13.769 6.58146C13.681 6.66936 13.5618 6.71875 13.4375 6.71875Z" fill="white"/>
<path d="M10 19.6875C11.7003 19.6884 13.3708 19.2418 14.8438 18.3925L14.5313 17.8516C12.5903 18.9807 10.3008 19.3537 8.10184 18.8989C5.90286 18.4441 3.94913 17.1937 2.61526 15.3873C1.28138 13.5809 0.661236 11.3456 0.873732 9.11021C1.08623 6.87477 2.11641 4.79644 3.76674 3.27371C5.41708 1.75098 7.57142 0.891018 9.8167 0.858714C12.062 0.826411 14.2402 1.62404 15.9336 3.09866C17.6271 4.57329 18.7166 6.62112 18.9934 8.84952C19.2701 11.0779 18.7145 13.33 17.4331 15.1741L16.6994 14.6116C16.6559 14.5782 16.6045 14.5569 16.5502 14.5496C16.4959 14.5424 16.4407 14.5496 16.39 14.5705C16.3394 14.5913 16.2951 14.6251 16.2617 14.6685C16.2282 14.7118 16.2067 14.7632 16.1994 14.8175L15.86 17.3125C15.854 17.3567 15.8575 17.4017 15.8703 17.4444C15.8831 17.4871 15.9049 17.5266 15.9342 17.5602C15.9636 17.5938 15.9998 17.6208 16.0404 17.6392C16.081 17.6577 16.1251 17.6672 16.1697 17.6672C16.2113 17.6672 16.2524 17.6588 16.2906 17.6425L18.6134 16.6672C18.6639 16.646 18.7079 16.612 18.741 16.5684C18.7742 16.5249 18.7953 16.4734 18.8024 16.4192C18.8094 16.3649 18.802 16.3098 18.7811 16.2592C18.7601 16.2087 18.7262 16.1646 18.6828 16.1313L17.9291 15.5531C19.0764 13.929 19.6908 11.9885 19.6875 10C19.6875 8.084 19.1193 6.21102 18.0549 4.61792C16.9904 3.02482 15.4774 1.78315 13.7073 1.04992C11.9371 0.316697 9.98926 0.124853 8.11007 0.498647C6.23088 0.872441 4.50473 1.79509 3.14991 3.14991C1.79509 4.50473 0.872441 6.23088 0.498647 8.11007C0.124853 9.98926 0.316697 11.9371 1.04992 13.7073C1.78315 15.4774 3.02482 16.9904 4.61792 18.0549C6.21102 19.1193 8.084 19.6875 10 19.6875ZM16.5531 16.8559L16.7459 15.435L17.8753 16.3006L16.5531 16.8559Z" fill="white"/>
</svg>
