<svg width="18" height="20" viewBox="0 0 18 20" fill="none" xmlns="http://www.w3.org/2000/svg">
<path d="M10.9193 11.7742H3.60338C3.44143 11.7742 3.31018 11.9055 3.31018 12.0674C3.31018 12.2294 3.44147 12.3606 3.60338 12.3606H10.9193C11.0813 12.3606 11.2125 12.2293 11.2125 12.0674C11.2125 11.9055 11.0813 11.7742 10.9193 11.7742Z" fill="white"/>
<path d="M8.64752 13.1543H3.60338C3.44143 13.1543 3.31018 13.2856 3.31018 13.4475C3.31018 13.6094 3.44147 13.7407 3.60338 13.7407H8.64752C8.80948 13.7407 8.94073 13.6094 8.94073 13.4475C8.94073 13.2856 8.80948 13.1543 8.64752 13.1543Z" fill="white"/>
<path d="M17.1569 6.00729C17.3189 6.00729 17.4501 5.876 17.4501 5.71409V3.06175C17.4501 2.89984 17.3189 2.76855 17.1569 2.76855H13.8318V0.293203C13.8318 0.131289 13.7006 0 13.5386 0H0.843251C0.681299 0 0.550049 0.131289 0.550049 0.293203V10.3636C0.550049 10.5255 0.681299 10.6568 0.843251 10.6568C1.0052 10.6568 1.13645 10.5255 1.13645 10.3636V0.586444H13.2454V14.1382H11.0318C10.8698 14.1382 10.7386 14.2695 10.7386 14.4314V16.645L1.13649 16.645V11.5364C1.13649 11.3745 1.00524 11.2432 0.84329 11.2432C0.681338 11.2432 0.550088 11.3745 0.550088 11.5364V16.9382C0.550088 17.1002 0.681338 17.2315 0.84329 17.2315H4.1684V19.7068C4.1684 19.8687 4.29965 20 4.4616 20H14.6502C14.6526 20 14.6549 19.9997 14.6572 19.9996C14.6644 19.9994 14.6716 19.9993 14.6787 19.9986C14.6843 19.998 14.6898 19.997 14.6953 19.9961C14.6992 19.9955 14.7031 19.9951 14.707 19.9943C14.7129 19.9932 14.7187 19.9915 14.7244 19.99C14.7279 19.9891 14.7313 19.9885 14.7347 19.9875C14.7403 19.9858 14.7458 19.9836 14.7512 19.9816C14.7547 19.9803 14.7582 19.9793 14.7617 19.9778C14.7669 19.9757 14.772 19.9731 14.7771 19.9706C14.7806 19.9689 14.7842 19.9675 14.7876 19.9657C14.793 19.9628 14.7983 19.9595 14.8035 19.9562C14.8064 19.9545 14.8094 19.9529 14.8122 19.951C14.8193 19.9463 14.8261 19.9412 14.8328 19.9359C14.8337 19.9352 14.8346 19.9346 14.8354 19.9339C14.843 19.9277 14.8503 19.9211 14.8573 19.9141L17.3642 17.4073C17.3735 17.398 17.3818 17.3879 17.3897 17.3775C17.3916 17.375 17.3935 17.3725 17.3953 17.37C17.4027 17.3596 17.4097 17.3489 17.4156 17.3376C17.4159 17.3371 17.4161 17.3366 17.4164 17.3361C17.422 17.3253 17.4268 17.3141 17.4311 17.3027C17.4322 17.2997 17.4333 17.2967 17.4343 17.2937C17.4383 17.2818 17.4419 17.2696 17.4444 17.2572C17.4444 17.2571 17.4444 17.257 17.4444 17.2569C17.4468 17.2447 17.4482 17.2322 17.449 17.2197C17.4493 17.2164 17.4494 17.2131 17.4495 17.2098C17.4496 17.2065 17.45 17.2033 17.45 17.2V6.88694C17.45 6.72503 17.3187 6.59374 17.1568 6.59374C16.9948 6.59374 16.8636 6.72503 16.8636 6.88694V16.9067H14.6501C14.4881 16.9067 14.3569 17.038 14.3569 17.1999V19.4135H4.75473V17.2314H11.0318C11.0342 17.2314 11.0365 17.2311 11.0388 17.2311C11.046 17.2309 11.0532 17.2307 11.0603 17.23C11.0659 17.2295 11.0714 17.2284 11.0769 17.2275C11.0808 17.227 11.0848 17.2266 11.0886 17.2258C11.0945 17.2246 11.1003 17.223 11.106 17.2214C11.1094 17.2206 11.113 17.2199 11.1163 17.2189C11.1219 17.2172 11.1274 17.215 11.1328 17.213C11.1363 17.2117 11.1398 17.2107 11.1433 17.2093C11.1485 17.2071 11.1536 17.2045 11.1587 17.202C11.1622 17.2004 11.1658 17.1989 11.1692 17.1971C11.1746 17.1942 11.1799 17.1909 11.1851 17.1877C11.188 17.1859 11.191 17.1843 11.1939 17.1824C11.2009 17.1777 11.2077 17.1726 11.2144 17.1673C11.2153 17.1666 11.2162 17.166 11.2171 17.1653C11.2246 17.1591 11.2319 17.1525 11.2389 17.1456L13.7458 14.6387C13.7551 14.6294 13.7634 14.6194 13.7714 14.609C13.7733 14.6065 13.7751 14.604 13.7769 14.6015C13.7844 14.5911 13.7913 14.5804 13.7973 14.5691C13.7975 14.5686 13.7977 14.5681 13.798 14.5677C13.8037 14.5568 13.8084 14.5456 13.8127 14.5341C13.8138 14.5311 13.8149 14.5282 13.8159 14.5252C13.8199 14.5133 13.8235 14.5011 13.826 14.4886C13.826 14.4885 13.826 14.4884 13.826 14.4884C13.8284 14.4761 13.8298 14.4636 13.8306 14.4511C13.8309 14.4478 13.831 14.4445 13.8311 14.4413C13.8312 14.4379 13.8316 14.4347 13.8316 14.4314V3.35495H16.8635V5.71409C16.8637 5.876 16.995 6.00729 17.1569 6.00729ZM14.9433 17.4931H16.4491L14.9433 18.9989V17.4931ZM11.3249 16.2304V14.7246H12.8307L11.3249 16.2304Z" fill="white"/>
<path d="M9.2748 4.84016C9.12418 4.68954 8.92387 4.60657 8.71086 4.60657C8.49785 4.60661 8.29758 4.68958 8.14691 4.8402L6.41684 6.57028L5.83375 5.98719C5.68316 5.83657 5.48285 5.7536 5.2698 5.7536C5.05676 5.7536 4.85648 5.83657 4.70586 5.98719C4.39492 6.29817 4.39492 6.80411 4.70586 7.11504L5.85293 8.26211C6.00359 8.41274 6.20387 8.49571 6.41684 8.49571C6.62988 8.49571 6.83016 8.4127 6.98078 8.26208L9.27477 5.96809C9.42539 5.81747 9.5084 5.61715 9.5084 5.40415C9.5084 5.19106 9.42547 4.99079 9.2748 4.84016ZM8.86008 5.55336L6.56605 7.84739C6.52617 7.88727 6.4732 7.90922 6.41684 7.90922C6.36129 7.90922 6.30688 7.88665 6.26762 7.84743L5.12059 6.7004C5.03824 6.61805 5.03824 6.48411 5.12059 6.40184C5.16047 6.36196 5.21344 6.34004 5.2698 6.34004C5.32617 6.34004 5.37918 6.36196 5.41902 6.40184L6.20945 7.19227C6.26445 7.24727 6.33902 7.27817 6.4168 7.27817C6.49457 7.27817 6.5691 7.24727 6.62414 7.19227L8.5616 5.25481C8.60148 5.21493 8.65449 5.19297 8.71086 5.19297C8.76719 5.19297 8.8202 5.21493 8.86008 5.25481C8.89996 5.29469 8.92188 5.3477 8.92188 5.40407C8.92195 5.46047 8.89996 5.51348 8.86008 5.55336Z" fill="white"/>
<path d="M6.99047 2.18561C6.09066 2.18561 5.22863 2.46022 4.49758 2.97975C4.36559 3.07354 4.33461 3.25658 4.4284 3.38862C4.52219 3.52061 4.70516 3.55158 4.83727 3.45776C5.46852 3.00912 6.21309 2.77201 6.99043 2.77201C9.04242 2.77201 10.7119 4.44147 10.7119 6.49346C10.7119 8.54545 9.04242 10.2149 6.99043 10.2149C4.93844 10.2149 3.26898 8.54549 3.26898 6.49346C3.26898 5.65932 3.53859 4.87104 4.04867 4.21381C4.14801 4.08588 4.1248 3.90166 3.99688 3.80241C3.86898 3.70315 3.6848 3.72631 3.58547 3.85424C2.9948 4.61526 2.68262 5.52791 2.68262 6.49346C2.68262 8.86885 4.61512 10.8014 6.99047 10.8014C9.36582 10.8014 11.2983 8.86885 11.2983 6.49346C11.2983 4.11807 9.36586 2.18561 6.99047 2.18561Z" fill="white"/>
</svg>
