<svg width="21" height="13" viewBox="0 0 21 13" fill="none" xmlns="http://www.w3.org/2000/svg">
<path d="M19.9069 5.22639L18.22 4.45611L16.7311 2.0807C16.3008 1.39218 15.5434 0.974764 14.7301 0.979067H8.38707C7.65121 0.979067 6.95408 1.31903 6.50654 1.90427L4.58298 4.42168L1.37705 5.29955C0.563728 5.52332 0 6.26779 0 7.11123V8.33766C0 9.37475 0.826228 10.2311 1.86332 10.2311H2.13873C2.47008 11.5092 3.77397 12.2751 5.05204 11.9438C5.89118 11.7243 6.54958 11.0702 6.76474 10.2311H13.9942C14.3256 11.5092 15.6295 12.2751 16.9075 11.9438C17.7467 11.7243 18.4051 11.0702 18.6202 10.2311H19.1366C20.1737 10.2311 21 9.37475 21 8.33766V6.9391C21.0043 6.20324 20.5739 5.53193 19.9069 5.22639ZM4.44958 11.152C3.60614 11.152 2.92192 10.4678 2.92192 9.62434C2.92192 8.7809 3.60614 8.09668 4.44958 8.09668C5.29302 8.09668 5.97724 8.7809 5.97724 9.62434C5.98154 10.4635 5.29732 11.1477 4.44958 11.152ZM16.3051 11.152C15.4616 11.152 14.7774 10.4678 14.7774 9.62434C14.7774 8.7809 15.4616 8.09668 16.3051 8.09668C17.1485 8.09668 17.8327 8.7809 17.8327 9.62434C17.8371 10.4635 17.1528 11.1477 16.3051 11.152ZM19.1366 9.37044H18.6805C18.5385 8.05795 17.3551 7.11123 16.0426 7.25754C14.928 7.37803 14.0502 8.2602 13.9297 9.37044H6.82499C6.68298 8.05795 5.49958 7.11123 4.18708 7.25754C3.07253 7.37803 2.19467 8.2602 2.07418 9.37044H1.85901C1.29528 9.37044 0.856351 8.90139 0.856351 8.33766V7.11123C0.852047 6.65078 1.15758 6.25057 1.60082 6.12578L4.95306 5.20918C5.04343 5.18336 5.12519 5.13172 5.18114 5.05426L7.18646 2.42497C7.47478 2.05488 7.91802 1.83972 8.38707 1.83972H14.7301C15.2465 1.83542 15.7328 2.09792 16.0039 2.53685L17.5616 5.02414C17.6047 5.0973 17.6735 5.15324 17.7467 5.18766L19.5455 6.00959C19.9069 6.17742 20.1393 6.53889 20.135 6.9391V8.33766H20.1393C20.1393 8.90139 19.7004 9.37044 19.1366 9.37044Z" fill="white"/>
</svg>
