<svg width="20" height="20" viewBox="0 0 20 20" fill="none" xmlns="http://www.w3.org/2000/svg">
<path d="M19.9472 12.7723L17.9664 9.3707C17.8968 9.25078 17.7672 9.17656 17.6285 9.17656C17.5597 9.17656 17.4922 9.19492 17.4324 9.22969C17.2461 9.33789 17.1828 9.57773 17.2914 9.76367L19.0758 12.8277L8.36638 19.0676L6.53227 15.625H11.3285C11.4321 15.625 11.5315 15.5838 11.6047 15.5106L14.7296 12.3856C14.8029 12.3123 14.844 12.213 14.844 12.1094V5.56133L15.5222 6.72578C15.5917 6.84531 15.7214 6.91992 15.8601 6.91992C15.9288 6.91992 15.9965 6.90156 16.0562 6.8668C16.1464 6.81445 16.2175 6.72969 16.2444 6.62891C16.271 6.52812 16.2502 6.42305 16.2111 6.33281C16.2111 6.33281 16.2111 6.33281 16.2111 6.33242L14.844 4.0091V0.390625C14.844 0.174883 14.6692 0 14.4535 0H0.390986C0.175244 0 0.000244141 0.174883 0.000244141 0.390625V15.2344C0.000244141 15.4501 0.175283 15.625 0.391025 15.625H5.64731L7.86798 19.793C7.91759 19.8863 8.00431 19.9562 8.10587 19.9852C8.14024 19.9949 8.17618 20 8.21212 20C8.28165 20 8.34962 19.9816 8.40938 19.9469L19.8066 13.3063C19.9925 13.1977 20.0554 12.9582 19.9472 12.7723V12.7723ZM11.719 14.2913V12.5H13.5104L11.719 14.2913ZM0.781494 0.78125H14.0627V11.7188H11.3285C11.1128 11.7188 10.9377 11.8936 10.9377 12.1094V14.8438H0.781494V0.78125Z" fill="white"/>
<path d="M3.51587 3.90625C3.73161 3.90625 3.90649 3.73136 3.90649 3.51562C3.90649 3.29989 3.73161 3.125 3.51587 3.125C3.30013 3.125 3.12524 3.29989 3.12524 3.51562C3.12524 3.73136 3.30013 3.90625 3.51587 3.90625Z" fill="white"/>
<path d="M5.27368 3.90625H11.3284C11.5436 3.90625 11.719 3.73086 11.719 3.51562C11.719 3.30039 11.5436 3.125 11.3284 3.125H5.27368C5.05845 3.125 4.88306 3.30039 4.88306 3.51562C4.88306 3.73086 5.05845 3.90625 5.27368 3.90625V3.90625Z" fill="white"/>
<path d="M5.27368 7.8125H11.3284C11.5436 7.8125 11.719 7.63711 11.719 7.42188C11.719 7.20664 11.5436 7.03125 11.3284 7.03125H5.27368C5.05845 7.03125 4.88306 7.20664 4.88306 7.42188C4.88306 7.63711 5.05845 7.8125 5.27368 7.8125V7.8125Z" fill="white"/>
<path d="M3.51587 7.8125C3.73161 7.8125 3.90649 7.63761 3.90649 7.42188C3.90649 7.20614 3.73161 7.03125 3.51587 7.03125C3.30013 7.03125 3.12524 7.20614 3.12524 7.42188C3.12524 7.63761 3.30013 7.8125 3.51587 7.8125Z" fill="white"/>
<path d="M9.76587 10.9375H6.05493C5.83919 10.9375 5.66431 11.1124 5.66431 11.3281C5.66431 11.5439 5.83919 11.7188 6.05493 11.7188H9.76587C9.98161 11.7188 10.1565 11.5439 10.1565 11.3281C10.1565 11.1124 9.98161 10.9375 9.76587 10.9375V10.9375Z" fill="white"/>
<path d="M4.80219 9.48941L3.57661 10.715L3.05965 9.93956C2.94 9.76007 2.6975 9.71156 2.51797 9.83124C2.33848 9.95089 2.28996 10.1934 2.40965 10.3729L3.1909 11.5448C3.25582 11.6422 3.36098 11.7053 3.47743 11.7168C3.49028 11.7181 3.50313 11.7187 3.51594 11.7187C3.61903 11.7187 3.71852 11.678 3.79215 11.6043L5.35465 10.0418C5.50719 9.88929 5.50719 9.64195 5.35465 9.48937C5.20207 9.33683 4.95473 9.33683 4.80219 9.48941V9.48941Z" fill="white"/>
<path d="M16.7443 8.43866C16.96 8.43866 17.1349 8.26377 17.1349 8.04803C17.1349 7.8323 16.96 7.65741 16.7443 7.65741C16.5285 7.65741 16.3536 7.8323 16.3536 8.04803C16.3536 8.26377 16.5285 8.43866 16.7443 8.43866Z" fill="white"/>
</svg>
