<svg width="20" height="18" viewBox="0 0 20 18" fill="none" xmlns="http://www.w3.org/2000/svg">
<path d="M13.8074 17.3195C13.7357 17.3195 13.667 17.291 13.6163 17.2403C13.5656 17.1896 13.5371 17.1209 13.5371 17.0492V2.6919L10.1117 1.25487L7.23524 2.38649V17.0492C7.23524 17.1209 7.20677 17.1896 7.15608 17.2403C7.1054 17.291 7.03665 17.3195 6.96497 17.3195C6.89329 17.3195 6.82455 17.291 6.77386 17.2403C6.72318 17.1896 6.6947 17.1209 6.6947 17.0492V2.20217C6.69468 2.14787 6.71102 2.09482 6.74158 2.04994C6.77215 2.00506 6.81552 1.97042 6.86605 1.95055L10.0161 0.711358C10.0816 0.685533 10.1546 0.686309 10.2196 0.71352L13.912 2.26298C13.9611 2.28358 14.003 2.31822 14.0325 2.36255C14.0619 2.40688 14.0777 2.45893 14.0777 2.51217V17.0492C14.0777 17.1209 14.0492 17.1896 13.9985 17.2403C13.9478 17.291 13.8791 17.3195 13.8074 17.3195Z" fill="white"/>
<path d="M10.1149 17.3195C10.0432 17.3195 9.97445 17.291 9.92376 17.2403C9.87308 17.1896 9.8446 17.1209 9.8446 17.0492V0.962989C9.8446 0.891309 9.87308 0.822564 9.92376 0.771879C9.97445 0.721193 10.0432 0.692719 10.1149 0.692719C10.1866 0.692719 10.2553 0.721193 10.306 0.771879C10.3567 0.822564 10.3851 0.891309 10.3851 0.962989V17.0492C10.3851 17.1209 10.3567 17.1896 10.306 17.2403C10.2553 17.291 10.1866 17.3195 10.1149 17.3195Z" fill="white"/>
<path d="M18.1709 17.3195C18.0992 17.3195 18.0305 17.291 17.9798 17.2403C17.9291 17.1896 17.9006 17.1209 17.9006 17.0492V8.55461L15.2579 7.01704H13.8074C13.7357 7.01704 13.667 6.98857 13.6163 6.93788C13.5656 6.8872 13.5371 6.81845 13.5371 6.74677C13.5371 6.67509 13.5656 6.60635 13.6163 6.55566C13.667 6.50498 13.7357 6.4765 13.8074 6.4765H15.3309C15.3784 6.47667 15.425 6.48935 15.466 6.51326L18.3063 8.16569C18.3473 8.18937 18.3814 8.2234 18.4051 8.26438C18.4288 8.30536 18.4413 8.35185 18.4414 8.3992V17.0479C18.4416 17.0835 18.4347 17.1188 18.4212 17.1518C18.4077 17.1847 18.3878 17.2147 18.3627 17.2399C18.3375 17.2652 18.3076 17.2852 18.2747 17.2989C18.2418 17.3125 18.2065 17.3195 18.1709 17.3195Z" fill="white"/>
<path d="M15.3308 17.3195C15.2591 17.3195 15.1904 17.291 15.1397 17.2403C15.089 17.1896 15.0605 17.1209 15.0605 17.0492V6.74677C15.0605 6.67509 15.089 6.60635 15.1397 6.55566C15.1904 6.50498 15.2591 6.4765 15.3308 6.4765C15.4025 6.4765 15.4712 6.50498 15.5219 6.55566C15.5726 6.60635 15.6011 6.67509 15.6011 6.74677V17.0492C15.6011 17.1209 15.5726 17.1896 15.5219 17.2403C15.4712 17.291 15.4025 17.3195 15.3308 17.3195Z" fill="white"/>
<path d="M1.41334 17.3195C1.34166 17.3195 1.27291 17.291 1.22223 17.2403C1.17154 17.1896 1.14307 17.1209 1.14307 17.0492V8.63163C1.14307 8.55995 1.17154 8.4912 1.22223 8.44052C1.27291 8.38983 1.34166 8.36136 1.41334 8.36136H6.96496C7.03664 8.36136 7.10538 8.38983 7.15607 8.44052C7.20675 8.4912 7.23523 8.55995 7.23523 8.63163C7.23523 8.70331 7.20675 8.77205 7.15607 8.82274C7.10538 8.87342 7.03664 8.9019 6.96496 8.9019H1.68361V17.0492C1.68361 17.1209 1.65513 17.1896 1.60445 17.2403C1.55376 17.291 1.48502 17.3195 1.41334 17.3195Z" fill="white"/>
<path d="M2.90124 9.94002H2.32691C2.25523 9.94002 2.18649 9.91154 2.1358 9.86086C2.08512 9.81017 2.05664 9.74143 2.05664 9.66975C2.05664 9.59807 2.08512 9.52932 2.1358 9.47864C2.18649 9.42795 2.25523 9.39948 2.32691 9.39948H2.90124C2.97292 9.39948 3.04166 9.42795 3.09235 9.47864C3.14303 9.52932 3.17151 9.59807 3.17151 9.66975C3.17151 9.74143 3.14303 9.81017 3.09235 9.86086C3.04166 9.91154 2.97292 9.94002 2.90124 9.94002Z" fill="white"/>
<path d="M4.47646 9.94002H3.90186C3.83018 9.94002 3.76144 9.91154 3.71075 9.86086C3.66007 9.81017 3.63159 9.74143 3.63159 9.66975C3.63159 9.59807 3.66007 9.52932 3.71075 9.47864C3.76144 9.42795 3.83018 9.39948 3.90186 9.39948H4.47646C4.54814 9.39948 4.61688 9.42795 4.66757 9.47864C4.71825 9.52932 4.74673 9.59807 4.74673 9.66975C4.74673 9.74143 4.71825 9.81017 4.66757 9.86086C4.61688 9.91154 4.54814 9.94002 4.47646 9.94002Z" fill="white"/>
<path d="M6.05138 9.94002H5.47706C5.40538 9.94002 5.33663 9.91154 5.28595 9.86086C5.23526 9.81017 5.20679 9.74143 5.20679 9.66975C5.20679 9.59807 5.23526 9.52932 5.28595 9.47864C5.33663 9.42795 5.40538 9.39948 5.47706 9.39948H6.05138C6.12306 9.39948 6.19181 9.42795 6.24249 9.47864C6.29318 9.52932 6.32165 9.59807 6.32165 9.66975C6.32165 9.74143 6.29318 9.81017 6.24249 9.86086C6.19181 9.91154 6.12306 9.94002 6.05138 9.94002Z" fill="white"/>
<path d="M2.90124 11.2084H2.32691C2.25523 11.2084 2.18649 11.1799 2.1358 11.1292C2.08512 11.0785 2.05664 11.0098 2.05664 10.9381C2.05664 10.8664 2.08512 10.7977 2.1358 10.747C2.18649 10.6963 2.25523 10.6678 2.32691 10.6678H2.90124C2.97292 10.6678 3.04166 10.6963 3.09235 10.747C3.14303 10.7977 3.17151 10.8664 3.17151 10.9381C3.17151 11.0098 3.14303 11.0785 3.09235 11.1292C3.04166 11.1799 2.97292 11.2084 2.90124 11.2084Z" fill="white"/>
<path d="M4.47646 11.2084H3.90186C3.83018 11.2084 3.76144 11.1799 3.71075 11.1292C3.66007 11.0785 3.63159 11.0098 3.63159 10.9381C3.63159 10.8664 3.66007 10.7977 3.71075 10.747C3.76144 10.6963 3.83018 10.6678 3.90186 10.6678H4.47646C4.54814 10.6678 4.61688 10.6963 4.66757 10.747C4.71825 10.7977 4.74673 10.8664 4.74673 10.9381C4.74673 11.0098 4.71825 11.0785 4.66757 11.1292C4.61688 11.1799 4.54814 11.2084 4.47646 11.2084Z" fill="white"/>
<path d="M6.05138 11.2084H5.47706C5.40538 11.2084 5.33663 11.1799 5.28595 11.1292C5.23526 11.0785 5.20679 11.0098 5.20679 10.9381C5.20679 10.8664 5.23526 10.7977 5.28595 10.747C5.33663 10.6963 5.40538 10.6678 5.47706 10.6678H6.05138C6.12306 10.6678 6.19181 10.6963 6.24249 10.747C6.29318 10.7977 6.32165 10.8664 6.32165 10.9381C6.32165 11.0098 6.29318 11.0785 6.24249 11.1292C6.19181 11.1799 6.12306 11.2084 6.05138 11.2084Z" fill="white"/>
<path d="M2.90124 12.4765H2.32691C2.25523 12.4765 2.18649 12.448 2.1358 12.3973C2.08512 12.3466 2.05664 12.2779 2.05664 12.2062C2.05664 12.1345 2.08512 12.0658 2.1358 12.0151C2.18649 11.9644 2.25523 11.9359 2.32691 11.9359H2.90124C2.97292 11.9359 3.04166 11.9644 3.09235 12.0151C3.14303 12.0658 3.17151 12.1345 3.17151 12.2062C3.17151 12.2779 3.14303 12.3466 3.09235 12.3973C3.04166 12.448 2.97292 12.4765 2.90124 12.4765Z" fill="white"/>
<path d="M4.47646 12.4765H3.90186C3.83018 12.4765 3.76144 12.448 3.71075 12.3973C3.66007 12.3466 3.63159 12.2779 3.63159 12.2062C3.63159 12.1345 3.66007 12.0658 3.71075 12.0151C3.76144 11.9644 3.83018 11.9359 3.90186 11.9359H4.47646C4.54814 11.9359 4.61688 11.9644 4.66757 12.0151C4.71825 12.0658 4.74673 12.1345 4.74673 12.2062C4.74673 12.2779 4.71825 12.3466 4.66757 12.3973C4.61688 12.448 4.54814 12.4765 4.47646 12.4765Z" fill="white"/>
<path d="M6.05138 12.4765H5.47706C5.40538 12.4765 5.33663 12.448 5.28595 12.3973C5.23526 12.3466 5.20679 12.2779 5.20679 12.2062C5.20679 12.1345 5.23526 12.0658 5.28595 12.0151C5.33663 11.9644 5.40538 11.9359 5.47706 11.9359H6.05138C6.12306 11.9359 6.19181 11.9644 6.24249 12.0151C6.29318 12.0658 6.32165 12.1345 6.32165 12.2062C6.32165 12.2779 6.29318 12.3466 6.24249 12.3973C6.19181 12.448 6.12306 12.4765 6.05138 12.4765Z" fill="white"/>
<path d="M2.90124 13.7449H2.32691C2.25523 13.7449 2.18649 13.7164 2.1358 13.6657C2.08512 13.615 2.05664 13.5463 2.05664 13.4746C2.05664 13.4029 2.08512 13.3342 2.1358 13.2835C2.18649 13.2328 2.25523 13.2043 2.32691 13.2043H2.90124C2.97292 13.2043 3.04166 13.2328 3.09235 13.2835C3.14303 13.3342 3.17151 13.4029 3.17151 13.4746C3.17151 13.5463 3.14303 13.615 3.09235 13.6657C3.04166 13.7164 2.97292 13.7449 2.90124 13.7449Z" fill="white"/>
<path d="M4.47646 13.7449H3.90186C3.83018 13.7449 3.76144 13.7164 3.71075 13.6657C3.66007 13.615 3.63159 13.5463 3.63159 13.4746C3.63159 13.4029 3.66007 13.3342 3.71075 13.2835C3.76144 13.2328 3.83018 13.2043 3.90186 13.2043H4.47646C4.54814 13.2043 4.61688 13.2328 4.66757 13.2835C4.71825 13.3342 4.74673 13.4029 4.74673 13.4746C4.74673 13.5463 4.71825 13.615 4.66757 13.6657C4.61688 13.7164 4.54814 13.7449 4.47646 13.7449Z" fill="white"/>
<path d="M6.05138 13.7449H5.47706C5.40538 13.7449 5.33663 13.7164 5.28595 13.6657C5.23526 13.615 5.20679 13.5463 5.20679 13.4746C5.20679 13.4029 5.23526 13.3342 5.28595 13.2835C5.33663 13.2328 5.40538 13.2043 5.47706 13.2043H6.05138C6.12306 13.2043 6.19181 13.2328 6.24249 13.2835C6.29318 13.3342 6.32165 13.4029 6.32165 13.4746C6.32165 13.5463 6.29318 13.615 6.24249 13.6657C6.19181 13.7164 6.12306 13.7449 6.05138 13.7449Z" fill="white"/>
<path d="M2.90124 15.0133H2.32691C2.25523 15.0133 2.18649 14.9848 2.1358 14.9341C2.08512 14.8834 2.05664 14.8147 2.05664 14.743C2.05664 14.6713 2.08512 14.6026 2.1358 14.5519C2.18649 14.5012 2.25523 14.4727 2.32691 14.4727H2.90124C2.97292 14.4727 3.04166 14.5012 3.09235 14.5519C3.14303 14.6026 3.17151 14.6713 3.17151 14.743C3.17151 14.8147 3.14303 14.8834 3.09235 14.9341C3.04166 14.9848 2.97292 15.0133 2.90124 15.0133Z" fill="white"/>
<path d="M4.47646 15.0133H3.90186C3.83018 15.0133 3.76144 14.9848 3.71075 14.9341C3.66007 14.8834 3.63159 14.8147 3.63159 14.743C3.63159 14.6713 3.66007 14.6026 3.71075 14.5519C3.76144 14.5012 3.83018 14.4727 3.90186 14.4727H4.47646C4.54814 14.4727 4.61688 14.5012 4.66757 14.5519C4.71825 14.6026 4.74673 14.6713 4.74673 14.743C4.74673 14.8147 4.71825 14.8834 4.66757 14.9341C4.61688 14.9848 4.54814 15.0133 4.47646 15.0133Z" fill="white"/>
<path d="M6.05138 15.0133H5.47706C5.40538 15.0133 5.33663 14.9848 5.28595 14.9341C5.23526 14.8834 5.20679 14.8147 5.20679 14.743C5.20679 14.6713 5.23526 14.6026 5.28595 14.5519C5.33663 14.5012 5.40538 14.4727 5.47706 14.4727H6.05138C6.12306 14.4727 6.19181 14.5012 6.24249 14.5519C6.29318 14.6026 6.32165 14.6713 6.32165 14.743C6.32165 14.8147 6.29318 14.8834 6.24249 14.9341C6.19181 14.9848 6.12306 15.0133 6.05138 15.0133Z" fill="white"/>
<path d="M2.90124 16.2816H2.32691C2.25523 16.2816 2.18649 16.2532 2.1358 16.2025C2.08512 16.1518 2.05664 16.083 2.05664 16.0114C2.05664 15.9397 2.08512 15.8709 2.1358 15.8202C2.18649 15.7696 2.25523 15.7411 2.32691 15.7411H2.90124C2.97292 15.7411 3.04166 15.7696 3.09235 15.8202C3.14303 15.8709 3.17151 15.9397 3.17151 16.0114C3.17151 16.083 3.14303 16.1518 3.09235 16.2025C3.04166 16.2532 2.97292 16.2816 2.90124 16.2816Z" fill="white"/>
<path d="M4.47646 16.2816H3.90186C3.83018 16.2816 3.76144 16.2532 3.71075 16.2025C3.66007 16.1518 3.63159 16.083 3.63159 16.0114C3.63159 15.9397 3.66007 15.8709 3.71075 15.8202C3.76144 15.7696 3.83018 15.7411 3.90186 15.7411H4.47646C4.54814 15.7411 4.61688 15.7696 4.66757 15.8202C4.71825 15.8709 4.74673 15.9397 4.74673 16.0114C4.74673 16.083 4.71825 16.1518 4.66757 16.2025C4.61688 16.2532 4.54814 16.2816 4.47646 16.2816Z" fill="white"/>
<path d="M6.05138 16.2816H5.47706C5.40538 16.2816 5.33663 16.2532 5.28595 16.2025C5.23526 16.1518 5.20679 16.083 5.20679 16.0114C5.20679 15.9397 5.23526 15.8709 5.28595 15.8202C5.33663 15.7696 5.40538 15.7411 5.47706 15.7411H6.05138C6.12306 15.7411 6.19181 15.7696 6.24249 15.8202C6.29318 15.8709 6.32165 15.9397 6.32165 16.0114C6.32165 16.083 6.29318 16.1518 6.24249 16.2025C6.19181 16.2532 6.12306 16.2816 6.05138 16.2816Z" fill="white"/>
<path d="M9.16224 3.60865C9.09056 3.60865 9.02181 3.58017 8.97113 3.52949C8.92044 3.4788 8.89197 3.41006 8.89197 3.33838V2.82838C8.89197 2.7567 8.92044 2.68795 8.97113 2.63727C9.02181 2.58658 9.09056 2.55811 9.16224 2.55811C9.23392 2.55811 9.30266 2.58658 9.35335 2.63727C9.40403 2.68795 9.43251 2.7567 9.43251 2.82838V3.33838C9.43251 3.41006 9.40403 3.4788 9.35335 3.52949C9.30266 3.58017 9.23392 3.60865 9.16224 3.60865Z" fill="white"/>
<path d="M7.92982 3.92298C7.85814 3.92298 7.78939 3.8945 7.73871 3.84382C7.68802 3.79313 7.65955 3.72439 7.65955 3.65271V3.14271C7.65955 3.07103 7.68802 3.00228 7.73871 2.9516C7.78939 2.90091 7.85814 2.87244 7.92982 2.87244C8.0015 2.87244 8.07024 2.90091 8.12093 2.9516C8.17161 3.00228 8.20009 3.07103 8.20009 3.14271V3.65271C8.20009 3.72439 8.17161 3.79313 8.12093 3.84382C8.07024 3.8945 8.0015 3.92298 7.92982 3.92298Z" fill="white"/>
<path d="M9.16224 5.64164C9.09056 5.64164 9.02181 5.61316 8.97113 5.56248C8.92044 5.51179 8.89197 5.44305 8.89197 5.37137V4.86137C8.89197 4.78969 8.92044 4.72094 8.97113 4.67026C9.02181 4.61957 9.09056 4.59109 9.16224 4.59109C9.23392 4.59109 9.30266 4.61957 9.35335 4.67026C9.40403 4.72094 9.43251 4.78969 9.43251 4.86137V5.37137C9.43251 5.44305 9.40403 5.51179 9.35335 5.56248C9.30266 5.61316 9.23392 5.64164 9.16224 5.64164Z" fill="white"/>
<path d="M7.92982 5.95597C7.85814 5.95597 7.78939 5.92749 7.73871 5.87681C7.68802 5.82612 7.65955 5.75738 7.65955 5.6857V5.1757C7.65955 5.10402 7.68802 5.03527 7.73871 4.98459C7.78939 4.9339 7.85814 4.90543 7.92982 4.90543C8.0015 4.90543 8.07024 4.9339 8.12093 4.98459C8.17161 5.03527 8.20009 5.10402 8.20009 5.1757V5.6857C8.20009 5.75738 8.17161 5.82612 8.12093 5.87681C8.07024 5.92749 8.0015 5.95597 7.92982 5.95597Z" fill="white"/>
<path d="M9.16224 7.67568C9.09056 7.67568 9.02181 7.6472 8.97113 7.59652C8.92044 7.54583 8.89197 7.47709 8.89197 7.4054V6.89432C8.89197 6.82264 8.92044 6.7539 8.97113 6.70321C9.02181 6.65253 9.09056 6.62405 9.16224 6.62405C9.23392 6.62405 9.30266 6.65253 9.35335 6.70321C9.40403 6.7539 9.43251 6.82264 9.43251 6.89432V7.4054C9.43251 7.47709 9.40403 7.54583 9.35335 7.59652C9.30266 7.6472 9.23392 7.67568 9.16224 7.67568Z" fill="white"/>
<path d="M7.92982 7.98893C7.85814 7.98893 7.78939 7.96045 7.73871 7.90977C7.68802 7.85908 7.65955 7.79034 7.65955 7.71866V7.20866C7.65955 7.13698 7.68802 7.06823 7.73871 7.01755C7.78939 6.96686 7.85814 6.93839 7.92982 6.93839C8.0015 6.93839 8.07024 6.96686 8.12093 7.01755C8.17161 7.06823 8.20009 7.13698 8.20009 7.20866V7.71866C8.20009 7.79034 8.17161 7.85908 8.12093 7.90977C8.07024 7.96045 8.0015 7.98893 7.92982 7.98893Z" fill="white"/>
<path d="M9.16224 9.70731C9.09056 9.70731 9.02181 9.67883 8.97113 9.62815C8.92044 9.57746 8.89197 9.50872 8.89197 9.43704V8.92704C8.89197 8.85536 8.92044 8.78662 8.97113 8.73593C9.02181 8.68524 9.09056 8.65677 9.16224 8.65677C9.23392 8.65677 9.30266 8.68524 9.35335 8.73593C9.40403 8.78662 9.43251 8.85536 9.43251 8.92704V9.43704C9.43251 9.50872 9.40403 9.57746 9.35335 9.62815C9.30266 9.67883 9.23392 9.70731 9.16224 9.70731Z" fill="white"/>
<path d="M7.92982 10.0216C7.85814 10.0216 7.78939 9.99317 7.73871 9.94248C7.68802 9.89179 7.65955 9.82305 7.65955 9.75137V9.24137C7.65955 9.16969 7.68802 9.10095 7.73871 9.05026C7.78939 8.99957 7.85814 8.9711 7.92982 8.9711C8.0015 8.9711 8.07024 8.99957 8.12093 9.05026C8.17161 9.10095 8.20009 9.16969 8.20009 9.24137V9.75137C8.20009 9.82305 8.17161 9.89179 8.12093 9.94248C8.07024 9.99317 8.0015 10.0216 7.92982 10.0216Z" fill="white"/>
<path d="M9.16224 11.7403C9.09056 11.7403 9.02181 11.7118 8.97113 11.6611C8.92044 11.6104 8.89197 11.5417 8.89197 11.47V10.96C8.89197 10.8883 8.92044 10.8196 8.97113 10.7689C9.02181 10.7182 9.09056 10.6897 9.16224 10.6897C9.23392 10.6897 9.30266 10.7182 9.35335 10.7689C9.40403 10.8196 9.43251 10.8883 9.43251 10.96V11.47C9.43251 11.5417 9.40403 11.6104 9.35335 11.6611C9.30266 11.7118 9.23392 11.7403 9.16224 11.7403Z" fill="white"/>
<path d="M7.92982 12.0541C7.85814 12.0541 7.78939 12.0256 7.73871 11.9749C7.68802 11.9242 7.65955 11.8555 7.65955 11.7838V11.2743C7.65955 11.2026 7.68802 11.1339 7.73871 11.0832C7.78939 11.0325 7.85814 11.0041 7.92982 11.0041C8.0015 11.0041 8.07024 11.0325 8.12093 11.0832C8.17161 11.1339 8.20009 11.2026 8.20009 11.2743V11.7838C8.20009 11.8555 8.17161 11.9242 8.12093 11.9749C8.07024 12.0256 8.0015 12.0541 7.92982 12.0541Z" fill="white"/>
<path d="M9.16224 13.7733C9.09056 13.7733 9.02181 13.7448 8.97113 13.6941C8.92044 13.6434 8.89197 13.5747 8.89197 13.503V12.993C8.89197 12.9213 8.92044 12.8526 8.97113 12.8019C9.02181 12.7512 9.09056 12.7227 9.16224 12.7227C9.23392 12.7227 9.30266 12.7512 9.35335 12.8019C9.40403 12.8526 9.43251 12.9213 9.43251 12.993V13.503C9.43251 13.5747 9.40403 13.6434 9.35335 13.6941C9.30266 13.7448 9.23392 13.7733 9.16224 13.7733Z" fill="white"/>
<path d="M7.92982 14.0876C7.85814 14.0876 7.78939 14.0591 7.73871 14.0084C7.68802 13.9577 7.65955 13.889 7.65955 13.8173V13.3073C7.65955 13.2356 7.68802 13.1669 7.73871 13.1162C7.78939 13.0655 7.85814 13.037 7.92982 13.037C8.0015 13.037 8.07024 13.0655 8.12093 13.1162C8.17161 13.1669 8.20009 13.2356 8.20009 13.3073V13.8173C8.20009 13.889 8.17161 13.9577 8.12093 14.0084C8.07024 14.0591 8.0015 14.0876 7.92982 14.0876Z" fill="white"/>
<path d="M9.16224 15.806C9.09056 15.806 9.02181 15.7775 8.97113 15.7268C8.92044 15.6761 8.89197 15.6074 8.89197 15.5357V15.027C8.89197 14.9554 8.92044 14.8866 8.97113 14.8359C9.02181 14.7853 9.09056 14.7568 9.16224 14.7568C9.23392 14.7568 9.30266 14.7853 9.35335 14.8359C9.40403 14.8866 9.43251 14.9554 9.43251 15.027V15.537C9.43215 15.6085 9.40352 15.6769 9.35287 15.7273C9.30223 15.7777 9.23368 15.806 9.16224 15.806Z" fill="white"/>
<path d="M7.92982 16.1205C7.85814 16.1205 7.78939 16.0921 7.73871 16.0414C7.68802 15.9907 7.65955 15.922 7.65955 15.8503V15.34C7.65955 15.2683 7.68802 15.1996 7.73871 15.1489C7.78939 15.0982 7.85814 15.0697 7.92982 15.0697C8.0015 15.0697 8.07024 15.0982 8.12093 15.1489C8.17161 15.1996 8.20009 15.2683 8.20009 15.34V15.85C8.20012 15.8855 8.19316 15.9207 8.17959 15.9535C8.16602 15.9863 8.14612 16.0162 8.12102 16.0413C8.09592 16.0664 8.06611 16.0863 8.03331 16.0999C8.0005 16.1135 7.96533 16.1205 7.92982 16.1205Z" fill="white"/>
<path d="M11.0271 3.35136C10.9554 3.35136 10.8867 3.32289 10.836 3.2722C10.7853 3.22152 10.7568 3.15277 10.7568 3.08109V2.57163C10.7568 2.49995 10.7853 2.43121 10.836 2.38052C10.8867 2.32984 10.9554 2.30136 11.0271 2.30136C11.0988 2.30136 11.1675 2.32984 11.2182 2.38052C11.2689 2.43121 11.2974 2.49995 11.2974 2.57163V3.08109C11.2974 3.15277 11.2689 3.22152 11.2182 3.2722C11.1675 3.32289 11.0988 3.35136 11.0271 3.35136Z" fill="white"/>
<path d="M11.9398 3.69596C11.8681 3.69596 11.7994 3.66749 11.7487 3.6168C11.698 3.56612 11.6696 3.49737 11.6696 3.42569V2.91596C11.6696 2.84428 11.698 2.77554 11.7487 2.72485C11.7994 2.67417 11.8681 2.64569 11.9398 2.64569C12.0115 2.64569 12.0803 2.67417 12.1309 2.72485C12.1816 2.77554 12.2101 2.84428 12.2101 2.91596V3.42596C12.21 3.49759 12.1815 3.56627 12.1308 3.6169C12.0802 3.66752 12.0115 3.69596 11.9398 3.69596Z" fill="white"/>
<path d="M12.8519 4.04029C12.7803 4.04029 12.7115 4.01182 12.6608 3.96113C12.6101 3.91045 12.5817 3.8417 12.5817 3.77002V3.26029C12.5817 3.18861 12.6101 3.11987 12.6608 3.06918C12.7115 3.0185 12.7803 2.99002 12.8519 2.99002C12.9236 2.99002 12.9924 3.0185 13.043 3.06918C13.0937 3.11987 13.1222 3.18861 13.1222 3.26029V3.77029C13.1221 3.84192 13.0936 3.9106 13.043 3.96123C12.9923 4.01185 12.9236 4.04029 12.8519 4.04029Z" fill="white"/>
<path d="M11.0271 5.37838C10.9554 5.37838 10.8867 5.3499 10.836 5.29922C10.7853 5.24853 10.7568 5.17979 10.7568 5.10811V4.5973C10.7568 4.52562 10.7853 4.45687 10.836 4.40619C10.8867 4.3555 10.9554 4.32703 11.0271 4.32703C11.0988 4.32703 11.1675 4.3555 11.2182 4.40619C11.2689 4.45687 11.2974 4.52562 11.2974 4.5973V5.10811C11.2974 5.17979 11.2689 5.24853 11.2182 5.29922C11.1675 5.3499 11.0988 5.37838 11.0271 5.37838Z" fill="white"/>
<path d="M11.9398 5.72163C11.8681 5.72163 11.7994 5.69315 11.7487 5.64247C11.698 5.59178 11.6696 5.52304 11.6696 5.45136V4.94163C11.6696 4.86995 11.698 4.8012 11.7487 4.75052C11.7994 4.69983 11.8681 4.67136 11.9398 4.67136C12.0115 4.67136 12.0803 4.69983 12.1309 4.75052C12.1816 4.8012 12.2101 4.86995 12.2101 4.94163V5.45136C12.2101 5.52304 12.1816 5.59178 12.1309 5.64247C12.0803 5.69315 12.0115 5.72163 11.9398 5.72163Z" fill="white"/>
<path d="M12.8519 6.06596C12.7803 6.06596 12.7115 6.03748 12.6608 5.9868C12.6101 5.93611 12.5817 5.86737 12.5817 5.79569V5.28596C12.5817 5.21428 12.6101 5.14553 12.6608 5.09485C12.7115 5.04416 12.7803 5.01569 12.8519 5.01569C12.9236 5.01569 12.9924 5.04416 13.043 5.09485C13.0937 5.14553 13.1222 5.21428 13.1222 5.28596V5.79596C13.1221 5.86759 13.0936 5.93626 13.043 5.98689C12.9923 6.03752 12.9236 6.06596 12.8519 6.06596Z" fill="white"/>
<path d="M11.0271 7.40324C10.9554 7.40324 10.8867 7.37477 10.836 7.32408C10.7853 7.27339 10.7568 7.20465 10.7568 7.13297V6.62162C10.7568 6.54994 10.7853 6.48119 10.836 6.43051C10.8867 6.37982 10.9554 6.35135 11.0271 6.35135C11.0988 6.35135 11.1675 6.37982 11.2182 6.43051C11.2689 6.48119 11.2974 6.54994 11.2974 6.62162V7.13162C11.2976 7.16722 11.2907 7.20252 11.2772 7.23546C11.2637 7.26841 11.2438 7.29836 11.2187 7.3236C11.1936 7.34884 11.1637 7.36887 11.1308 7.38254C11.098 7.39621 11.0627 7.40324 11.0271 7.40324Z" fill="white"/>
<path d="M11.9398 7.74756C11.8681 7.74756 11.7994 7.71909 11.7487 7.6684C11.698 7.61772 11.6696 7.54897 11.6696 7.47729V6.96729C11.6696 6.89561 11.698 6.82687 11.7487 6.77618C11.7994 6.7255 11.8681 6.69702 11.9398 6.69702C12.0115 6.69702 12.0803 6.7255 12.1309 6.77618C12.1816 6.82687 12.2101 6.89561 12.2101 6.96729V7.47729C12.2101 7.54897 12.1816 7.61772 12.1309 7.6684C12.0803 7.71909 12.0115 7.74756 11.9398 7.74756Z" fill="white"/>
<path d="M12.8519 8.09162C12.7803 8.09162 12.7115 8.06315 12.6608 8.01246C12.6101 7.96178 12.5817 7.89303 12.5817 7.82135V7.31162C12.5817 7.23994 12.6101 7.1712 12.6608 7.12051C12.7115 7.06983 12.7803 7.04135 12.8519 7.04135C12.9236 7.04135 12.9924 7.06983 13.043 7.12051C13.0937 7.1712 13.1222 7.23994 13.1222 7.31162V7.82162C13.1221 7.89326 13.0936 7.96193 13.043 8.01256C12.9923 8.06318 12.9236 8.09162 12.8519 8.09162Z" fill="white"/>
<path d="M11.0271 9.42893C10.9554 9.42893 10.8867 9.40045 10.836 9.34977C10.7853 9.29908 10.7568 9.23034 10.7568 9.15866V8.64866C10.7568 8.57698 10.7853 8.50823 10.836 8.45755C10.8867 8.40686 10.9554 8.37839 11.0271 8.37839C11.0988 8.37839 11.1675 8.40686 11.2182 8.45755C11.2689 8.50823 11.2974 8.57698 11.2974 8.64866V9.15866C11.2974 9.23034 11.2689 9.29908 11.2182 9.34977C11.1675 9.40045 11.0988 9.42893 11.0271 9.42893Z" fill="white"/>
<path d="M11.9398 9.77326C11.8681 9.77326 11.7994 9.74478 11.7487 9.6941C11.698 9.64341 11.6696 9.57467 11.6696 9.50299V8.99299C11.6696 8.92131 11.698 8.85256 11.7487 8.80188C11.7994 8.75119 11.8681 8.72272 11.9398 8.72272C12.0115 8.72272 12.0803 8.75119 12.1309 8.80188C12.1816 8.85256 12.2101 8.92131 12.2101 8.99299V9.50299C12.2101 9.57467 12.1816 9.64341 12.1309 9.6941C12.0803 9.74478 12.0115 9.77326 11.9398 9.77326Z" fill="white"/>
<path d="M12.8519 10.1176C12.7803 10.1176 12.7115 10.0891 12.6608 10.0384C12.6101 9.98774 12.5817 9.919 12.5817 9.84732V9.33732C12.5817 9.26564 12.6101 9.19689 12.6608 9.14621C12.7115 9.09552 12.7803 9.06705 12.8519 9.06705C12.9236 9.06705 12.9924 9.09552 13.043 9.14621C13.0937 9.19689 13.1222 9.26564 13.1222 9.33732V9.84732C13.1222 9.919 13.0937 9.98774 13.043 10.0384C12.9924 10.0891 12.9236 10.1176 12.8519 10.1176Z" fill="white"/>
<path d="M11.0271 11.4546C10.9554 11.4546 10.8867 11.4261 10.836 11.3755C10.7853 11.3248 10.7568 11.256 10.7568 11.1843V10.6757C10.7568 10.604 10.7853 10.5353 10.836 10.4846C10.8867 10.4339 10.9554 10.4054 11.0271 10.4054C11.0988 10.4054 11.1675 10.4339 11.2182 10.4846C11.2689 10.5353 11.2974 10.604 11.2974 10.6757V11.1857C11.297 11.2571 11.2684 11.3255 11.2177 11.3759C11.1671 11.4263 11.0986 11.4546 11.0271 11.4546Z" fill="white"/>
<path d="M11.9398 11.7989C11.8681 11.7989 11.7994 11.7704 11.7487 11.7198C11.698 11.6691 11.6696 11.6003 11.6696 11.5287V11.0187C11.6696 10.947 11.698 10.8782 11.7487 10.8275C11.7994 10.7769 11.8681 10.7484 11.9398 10.7484C12.0115 10.7484 12.0803 10.7769 12.1309 10.8275C12.1816 10.8782 12.2101 10.947 12.2101 11.0187V11.5287C12.2101 11.6003 12.1816 11.6691 12.1309 11.7198C12.0803 11.7704 12.0115 11.7989 11.9398 11.7989Z" fill="white"/>
<path d="M12.8519 12.1433C12.7803 12.1433 12.7115 12.1148 12.6608 12.0641C12.6101 12.0134 12.5817 11.9447 12.5817 11.873V11.363C12.5817 11.2913 12.6101 11.2226 12.6608 11.1719C12.7115 11.1212 12.7803 11.0927 12.8519 11.0927C12.9236 11.0927 12.9924 11.1212 13.043 11.1719C13.0937 11.2226 13.1222 11.2913 13.1222 11.363V11.873C13.1222 11.9447 13.0937 12.0134 13.043 12.0641C12.9924 12.1148 12.9236 12.1433 12.8519 12.1433Z" fill="white"/>
<path d="M11.0271 13.4803C10.9554 13.4803 10.8867 13.4518 10.836 13.4011C10.7853 13.3504 10.7568 13.2817 10.7568 13.21V12.7C10.7568 12.6283 10.7853 12.5596 10.836 12.5089C10.8867 12.4582 10.9554 12.4297 11.0271 12.4297C11.0988 12.4297 11.1675 12.4582 11.2182 12.5089C11.2689 12.5596 11.2974 12.6283 11.2974 12.7V13.21C11.2974 13.2817 11.2689 13.3504 11.2182 13.4011C11.1675 13.4518 11.0988 13.4803 11.0271 13.4803Z" fill="white"/>
<path d="M11.9398 13.8246C11.8681 13.8246 11.7994 13.7961 11.7487 13.7454C11.698 13.6947 11.6696 13.626 11.6696 13.5543V13.0443C11.6696 12.9726 11.698 12.9039 11.7487 12.8532C11.7994 12.8025 11.8681 12.774 11.9398 12.774C12.0115 12.774 12.0803 12.8025 12.1309 12.8532C12.1816 12.9039 12.2101 12.9726 12.2101 13.0443V13.5543C12.2101 13.626 12.1816 13.6947 12.1309 13.7454C12.0803 13.7961 12.0115 13.8246 11.9398 13.8246Z" fill="white"/>
<path d="M12.8519 14.1689C12.7803 14.1689 12.7115 14.1404 12.6608 14.0898C12.6101 14.0391 12.5817 13.9703 12.5817 13.8986V13.3886C12.5817 13.317 12.6101 13.2482 12.6608 13.1975C12.7115 13.1469 12.7803 13.1184 12.8519 13.1184C12.9236 13.1184 12.9924 13.1469 13.043 13.1975C13.0937 13.2482 13.1222 13.317 13.1222 13.3886V13.8986C13.1222 13.9703 13.0937 14.0391 13.043 14.0898C12.9924 14.1404 12.9236 14.1689 12.8519 14.1689Z" fill="white"/>
<path d="M11.0271 15.506C10.9554 15.506 10.8867 15.4775 10.836 15.4268C10.7853 15.3761 10.7568 15.3074 10.7568 15.2357V14.7257C10.7568 14.654 10.7853 14.5853 10.836 14.5346C10.8867 14.4839 10.9554 14.4554 11.0271 14.4554C11.0988 14.4554 11.1675 14.4839 11.2182 14.5346C11.2689 14.5853 11.2974 14.654 11.2974 14.7257V15.2357C11.2974 15.3074 11.2689 15.3761 11.2182 15.4268C11.1675 15.4775 11.0988 15.506 11.0271 15.506Z" fill="white"/>
<path d="M11.9398 15.8503C11.8681 15.8503 11.7994 15.8218 11.7487 15.7711C11.698 15.7204 11.6696 15.6517 11.6696 15.58V15.07C11.6696 14.9983 11.698 14.9296 11.7487 14.8789C11.7994 14.8282 11.8681 14.7997 11.9398 14.7997C12.0115 14.7997 12.0803 14.8282 12.1309 14.8789C12.1816 14.9296 12.2101 14.9983 12.2101 15.07V15.58C12.2101 15.6517 12.1816 15.7204 12.1309 15.7711C12.0803 15.8218 12.0115 15.8503 11.9398 15.8503Z" fill="white"/>
<path d="M12.8519 16.1946C12.7803 16.1946 12.7115 16.1661 12.6608 16.1155C12.6101 16.0648 12.5817 15.996 12.5817 15.9243V15.4143C12.5817 15.3427 12.6101 15.2739 12.6608 15.2232C12.7115 15.1725 12.7803 15.1441 12.8519 15.1441C12.9236 15.1441 12.9924 15.1725 13.043 15.2232C13.0937 15.2739 13.1222 15.3427 13.1222 15.4143V15.9243C13.1222 15.996 13.0937 16.0648 13.043 16.1155C12.9924 16.1661 12.9236 16.1946 12.8519 16.1946Z" fill="white"/>
<path d="M16.2703 9.09461C16.1986 9.09461 16.1298 9.06613 16.0792 9.01545C16.0285 8.96476 16 8.89602 16 8.82434V8.55109C16 8.47941 16.0285 8.41067 16.0792 8.35998C16.1298 8.3093 16.1986 8.28082 16.2703 8.28082C16.342 8.28082 16.4107 8.3093 16.4614 8.35998C16.5121 8.41067 16.5405 8.47941 16.5405 8.55109V8.82434C16.5405 8.89602 16.5121 8.96476 16.4614 9.01545C16.4107 9.06613 16.342 9.09461 16.2703 9.09461Z" fill="white"/>
<path d="M17.1812 9.66703C17.1095 9.66703 17.0407 9.63855 16.99 9.58786C16.9394 9.53718 16.9109 9.46844 16.9109 9.39675V9.12351C16.9109 9.05183 16.9394 8.98309 16.99 8.9324C17.0407 8.88172 17.1095 8.85324 17.1812 8.85324C17.2528 8.85324 17.3216 8.88172 17.3723 8.9324C17.423 8.98309 17.4514 9.05183 17.4514 9.12351V9.39675C17.4514 9.46844 17.423 9.53718 17.3723 9.58786C17.3216 9.63855 17.2528 9.66703 17.1812 9.66703Z" fill="white"/>
<path d="M16.2703 10.4292C16.1986 10.4292 16.1298 10.4007 16.0792 10.35C16.0285 10.2994 16 10.2306 16 10.1589V9.88596C16 9.81428 16.0285 9.74554 16.0792 9.69485C16.1298 9.64417 16.1986 9.61569 16.2703 9.61569C16.342 9.61569 16.4107 9.64417 16.4614 9.69485C16.5121 9.74554 16.5405 9.81428 16.5405 9.88596V10.1592C16.5405 10.2308 16.512 10.2995 16.4613 10.3501C16.4106 10.4008 16.3419 10.4292 16.2703 10.4292Z" fill="white"/>
<path d="M17.1812 11.0016C17.1095 11.0016 17.0407 10.9732 16.99 10.9225C16.9394 10.8718 16.9109 10.8031 16.9109 10.7314V10.4595C16.9109 10.3878 16.9394 10.3191 16.99 10.2684C17.0407 10.2177 17.1095 10.1892 17.1812 10.1892C17.2528 10.1892 17.3216 10.2177 17.3723 10.2684C17.423 10.3191 17.4514 10.3878 17.4514 10.4595V10.7327C17.4511 10.8042 17.4224 10.8726 17.3718 10.923C17.3211 10.9734 17.2526 11.0016 17.1812 11.0016Z" fill="white"/>
<path d="M16.2703 11.7641C16.1986 11.7641 16.1298 11.7356 16.0792 11.6849C16.0285 11.6342 16 11.5655 16 11.4938V11.2206C16 11.1489 16.0285 11.0801 16.0792 11.0294C16.1298 10.9788 16.1986 10.9503 16.2703 10.9503C16.342 10.9503 16.4107 10.9788 16.4614 11.0294C16.5121 11.0801 16.5405 11.1489 16.5405 11.2206V11.4938C16.5405 11.5655 16.5121 11.6342 16.4614 11.6849C16.4107 11.7356 16.342 11.7641 16.2703 11.7641Z" fill="white"/>
<path d="M17.1812 12.3365C17.1095 12.3365 17.0407 12.308 16.99 12.2573C16.9394 12.2066 16.9109 12.1379 16.9109 12.0662V11.793C16.9109 11.7213 16.9394 11.6526 16.99 11.6019C17.0407 11.5512 17.1095 11.5227 17.1812 11.5227C17.2528 11.5227 17.3216 11.5512 17.3723 11.6019C17.423 11.6526 17.4514 11.7213 17.4514 11.793V12.0662C17.4514 12.1379 17.423 12.2066 17.3723 12.2573C17.3216 12.308 17.2528 12.3365 17.1812 12.3365Z" fill="white"/>
<path d="M16.2703 13.0989C16.1986 13.0989 16.1298 13.0705 16.0792 13.0198C16.0285 12.9691 16 12.9003 16 12.8287V12.5554C16 12.4837 16.0285 12.415 16.0792 12.3643C16.1298 12.3136 16.1986 12.2852 16.2703 12.2852C16.342 12.2852 16.4107 12.3136 16.4614 12.3643C16.5121 12.415 16.5405 12.4837 16.5405 12.5554V12.8287C16.5405 12.9003 16.5121 12.9691 16.4614 13.0198C16.4107 13.0705 16.342 13.0989 16.2703 13.0989Z" fill="white"/>
<path d="M17.1812 13.6711C17.1095 13.6711 17.0407 13.6426 16.99 13.5919C16.9394 13.5412 16.9109 13.4725 16.9109 13.4008V13.1276C16.9109 13.0559 16.9394 12.9871 16.99 12.9365C17.0407 12.8858 17.1095 12.8573 17.1812 12.8573C17.2528 12.8573 17.3216 12.8858 17.3723 12.9365C17.423 12.9871 17.4514 13.0559 17.4514 13.1276V13.4008C17.4514 13.4725 17.423 13.5412 17.3723 13.5919C17.3216 13.6426 17.2528 13.6711 17.1812 13.6711Z" fill="white"/>
<path d="M16.2703 14.4325C16.1986 14.4325 16.1298 14.404 16.0792 14.3533C16.0285 14.3026 16 14.2339 16 14.1622V13.89C16 13.8183 16.0285 13.7496 16.0792 13.6989C16.1298 13.6482 16.1986 13.6198 16.2703 13.6198C16.342 13.6198 16.4107 13.6482 16.4614 13.6989C16.5121 13.7496 16.5405 13.8183 16.5405 13.89V14.1622C16.5405 14.2339 16.5121 14.3026 16.4614 14.3533C16.4107 14.404 16.342 14.4325 16.2703 14.4325Z" fill="white"/>
<path d="M17.1812 15.006C17.1095 15.006 17.0407 14.9775 16.99 14.9268C16.9394 14.8761 16.9109 14.8074 16.9109 14.7357V14.4624C16.9109 14.3908 16.9394 14.322 16.99 14.2713C17.0407 14.2206 17.1095 14.1922 17.1812 14.1922C17.2528 14.1922 17.3216 14.2206 17.3723 14.2713C17.423 14.322 17.4514 14.3908 17.4514 14.4624V14.7357C17.4514 14.8074 17.423 14.8761 17.3723 14.9268C17.3216 14.9775 17.2528 15.006 17.1812 15.006Z" fill="white"/>
<path d="M16.2703 15.7684C16.1986 15.7684 16.1298 15.7399 16.0792 15.6892C16.0285 15.6385 16 15.5698 16 15.4981V15.2249C16 15.1532 16.0285 15.0844 16.0792 15.0337C16.1298 14.9831 16.1986 14.9546 16.2703 14.9546C16.342 14.9546 16.4107 14.9831 16.4614 15.0337C16.5121 15.0844 16.5405 15.1532 16.5405 15.2249V15.4981C16.5405 15.5698 16.5121 15.6385 16.4614 15.6892C16.4107 15.7399 16.342 15.7684 16.2703 15.7684Z" fill="white"/>
<path d="M17.1812 16.3405C17.1095 16.3405 17.0407 16.3121 16.99 16.2614C16.9394 16.2107 16.9109 16.142 16.9109 16.0703V15.797C16.9109 15.7254 16.9394 15.6566 16.99 15.6059C17.0407 15.5552 17.1095 15.5268 17.1812 15.5268C17.2528 15.5268 17.3216 15.5552 17.3723 15.6059C17.423 15.6566 17.4514 15.7254 17.4514 15.797V16.0703C17.4514 16.142 17.423 16.2107 17.3723 16.2614C17.3216 16.3121 17.2528 16.3405 17.1812 16.3405Z" fill="white"/>
<path d="M18.9814 17.3151H0.603034C0.531354 17.3151 0.46261 17.2867 0.411924 17.236C0.361239 17.1853 0.332764 17.1165 0.332764 17.0449C0.332764 16.9732 0.361239 16.9044 0.411924 16.8538C0.46261 16.8031 0.531354 16.7746 0.603034 16.7746H18.9814C19.0531 16.7746 19.1218 16.8031 19.1725 16.8538C19.2232 16.9044 19.2517 16.9732 19.2517 17.0449C19.2517 17.1165 19.2232 17.1853 19.1725 17.236C19.1218 17.2867 19.0531 17.3151 18.9814 17.3151Z" fill="white"/>
</svg>
