<svg width="20" height="20" viewBox="0 0 20 20" fill="none" xmlns="http://www.w3.org/2000/svg">
<path d="M9.7059 9.70591V5.29411C9.7059 5.1381 9.76789 4.98849 9.8782 4.87818L13.7017 1.05466C13.812 0.944347 13.9616 0.882355 14.1177 0.882355H19.4118C19.7366 0.882355 20 1.14571 20 1.4706V13.8235C20 14.1484 19.7366 14.4118 19.4118 14.4118H14.1177V17.3529C14.1177 18.3275 13.3276 19.1176 12.353 19.1176H1.76469C0.790078 19.1177 0 18.3276 0 17.3529V9.70591C0 8.7313 0.790078 7.94122 1.76469 7.94122H5.44934C6.11777 7.94122 6.72883 8.31888 7.02773 8.91673L7.25977 9.38075C7.35941 9.58005 7.56309 9.70591 7.7859 9.70591H9.7059ZM10.8823 5.88235V9.70587H12.3529C12.7137 9.70587 13.0493 9.81415 13.3288 9.99997H16.7647C17.0896 9.99997 17.3529 10.2633 17.3529 10.5882C17.3529 10.9131 17.0896 11.1765 16.7647 11.1765H14.0932C14.1093 11.2721 14.1177 11.3704 14.1177 11.4706V13.2352H18.8236V2.05884H14.7059V5.29415C14.7059 5.61903 14.4425 5.88239 14.1177 5.88239H10.8823V5.88235ZM11.7143 4.70591H13.5294V2.89071L11.7143 4.70591ZM1.76469 9.11767C1.4398 9.11767 1.17645 9.38103 1.17645 9.70591V17.353C1.17645 17.6779 1.4398 17.9412 1.76469 17.9412H12.3529C12.6778 17.9412 12.9412 17.6779 12.9412 17.353V11.4706C12.9412 11.1457 12.6778 10.8824 12.3529 10.8824H7.78594C7.1175 10.8824 6.50644 10.5047 6.20754 9.90685L5.97551 9.44282C5.87586 9.24353 5.67219 9.11767 5.44938 9.11767H1.76469ZM12.9412 8.23532C12.6163 8.23532 12.3529 7.97196 12.3529 7.64708C12.3529 7.3222 12.6163 7.05884 12.9412 7.05884H16.7647C17.0896 7.05884 17.3529 7.3222 17.3529 7.64708C17.3529 7.97196 17.0896 8.23532 16.7647 8.23532H12.9412Z" fill="white" fill-opacity="0.8"/>
</svg>
