<svg width="16" height="18" viewBox="0 0 16 18" fill="none" xmlns="http://www.w3.org/2000/svg">
<path d="M6.59375 0.875C5.82265 0.875 5.1875 1.51015 5.1875 2.28125V3.21875C5.18662 3.28086 5.1981 3.34254 5.22126 3.40018C5.24442 3.45782 5.27881 3.51028 5.32242 3.55452C5.36604 3.59875 5.41801 3.63388 5.47532 3.65785C5.53263 3.68183 5.59413 3.69418 5.65625 3.69418C5.71837 3.69418 5.77987 3.68183 5.83718 3.65785C5.89449 3.63388 5.94646 3.59875 5.99007 3.55452C6.03369 3.51028 6.06808 3.45782 6.09124 3.40018C6.1144 3.34254 6.12588 3.28086 6.125 3.21875V2.28125C6.125 2.01681 6.32931 1.8125 6.59375 1.8125H9.40625C9.67068 1.8125 9.875 2.01681 9.875 2.28125V8.21875C9.87501 8.34307 9.9244 8.46229 10.0123 8.55019C10.1002 8.6381 10.2194 8.68749 10.3438 8.6875H11.7817L8.34668 12.4558C8.15582 12.6651 7.84418 12.6651 7.65332 12.4558L4.21826 8.6875H5.65625C5.78057 8.68749 5.89979 8.6381 5.98769 8.55019C6.0756 8.46229 6.12499 8.34307 6.125 8.21875V4.78125C6.12588 4.71914 6.1144 4.65746 6.09124 4.59982C6.06808 4.54218 6.03369 4.48972 5.99007 4.44548C5.94646 4.40125 5.89449 4.36612 5.83718 4.34215C5.77987 4.31817 5.71837 4.30582 5.65625 4.30582C5.59413 4.30582 5.53263 4.31817 5.47532 4.34215C5.41801 4.36612 5.36604 4.40125 5.32242 4.44548C5.27881 4.48972 5.24442 4.54218 5.22126 4.59982C5.1981 4.65746 5.18662 4.71914 5.1875 4.78125V7.75H4.21826C3.82908 7.75 3.49793 7.9969 3.36011 8.30908C3.22228 8.62127 3.2633 9.03163 3.52551 9.31921L6.96057 13.0875C7.51336 13.6938 8.48664 13.6938 9.03943 13.0875L12.4745 9.31921C12.7367 9.03163 12.7777 8.62127 12.6399 8.30908C12.5021 7.9969 12.1709 7.75 11.7817 7.75H10.8125V2.28125C10.8125 1.51015 10.1773 0.875 9.40625 0.875H6.59375Z" fill="white"/>
<path d="M0.648974 12.7433C0.52476 12.7452 0.406396 12.7964 0.319878 12.8855C0.233361 12.9747 0.185766 13.0945 0.187548 13.2187V15.7187C0.187548 16.4897 0.822844 17.125 1.5938 17.125H14.4063C15.1773 17.125 15.8125 16.4897 15.8125 15.7187V13.2187C15.8134 13.1566 15.802 13.095 15.7788 13.0373C15.7556 12.9797 15.7212 12.9272 15.6776 12.883C15.634 12.8387 15.582 12.8036 15.5247 12.7796C15.4674 12.7557 15.4059 12.7433 15.3438 12.7433C15.2817 12.7433 15.2202 12.7557 15.1629 12.7796C15.1056 12.8036 15.0536 12.8387 15.01 12.883C14.9664 12.9272 14.932 12.9797 14.9088 13.0373C14.8856 13.095 14.8742 13.1566 14.875 13.2187V15.7187C14.875 15.9865 14.6741 16.1875 14.4063 16.1875H1.5938C1.326 16.1875 1.12505 15.9865 1.12505 15.7187V13.2187C1.12595 13.156 1.11424 13.0937 1.09063 13.0356C1.06702 12.9775 1.03197 12.9247 0.987576 12.8803C0.94318 12.836 0.890334 12.801 0.832172 12.7775C0.774009 12.7539 0.711712 12.7423 0.648974 12.7433Z" fill="white"/>
</svg>
