<svg width="20" height="28" viewBox="0 0 20 28" fill="none" xmlns="http://www.w3.org/2000/svg">
<path d="M14.3749 4.3125H5.24463C4.59839 4.31323 3.97882 4.57027 3.52186 5.02723C3.0649 5.48419 2.80786 6.10376 2.80713 6.75V25.25C2.80786 25.8962 3.0649 26.5158 3.52186 26.9728C3.97882 27.4297 4.59839 27.6868 5.24463 27.6875H14.3749C15.0211 27.6868 15.6407 27.4297 16.0976 26.9728C16.5546 26.5158 16.8117 25.8962 16.8124 25.25V6.75C16.8117 6.10376 16.5546 5.48419 16.0976 5.02723C15.6407 4.57027 15.0211 4.31323 14.3749 4.3125ZM12.5539 5.1875V5.753C12.5537 5.86722 12.5082 5.97671 12.4274 6.05746C12.3466 6.1382 12.2371 6.18362 12.1229 6.18375H7.49788C7.38368 6.18362 7.27419 6.13819 7.19344 6.05744C7.11269 5.97669 7.06726 5.8672 7.06713 5.753V5.1875H12.5539ZM15.9371 25.25C15.9367 25.6643 15.7719 26.0614 15.479 26.3543C15.186 26.6473 14.7889 26.812 14.3746 26.8125H5.24463C4.83037 26.812 4.43321 26.6473 4.14029 26.3543C3.84736 26.0614 3.68259 25.6643 3.68213 25.25V6.75C3.68259 6.33574 3.84736 5.93858 4.14029 5.64566C4.43321 5.35273 4.83037 5.18796 5.24463 5.1875H6.19113V5.753C6.19153 6.09918 6.32922 6.43108 6.57401 6.67587C6.8188 6.92066 7.15069 7.05835 7.49688 7.05875H12.1219C12.4681 7.05835 12.8 6.92066 13.0448 6.67588C13.2897 6.4311 13.4274 6.09921 13.4279 5.753V5.1875H14.3749C14.7891 5.18803 15.1862 5.35283 15.4791 5.64575C15.7719 5.93866 15.9367 6.33578 15.9371 6.75V25.25Z" fill="white"/>
<path d="M12.4999 24.7292H7.11963C7.0036 24.7292 6.89232 24.7753 6.81027 24.8574C6.72822 24.9394 6.68213 25.0507 6.68213 25.1667C6.68213 25.2828 6.72822 25.3941 6.81027 25.4761C6.89232 25.5582 7.0036 25.6042 7.11963 25.6042H12.4999C12.6159 25.6042 12.7272 25.5582 12.8092 25.4761C12.8913 25.3941 12.9374 25.2828 12.9374 25.1667C12.9374 25.0507 12.8913 24.9394 12.8092 24.8574C12.7272 24.7753 12.6159 24.7292 12.4999 24.7292Z" fill="white"/>
</svg>
